<svg width="927" height="292" viewBox="0 0 927 292" fill="none" xmlns="http://www.w3.org/2000/svg">
<path d="M103.88 47.4728C150.369 43.6249 188.787 36.1768 232.258 24.8874C268.562 15.4584 332.337 -8.85348 370.856 3.35936C383.135 7.25409 387.739 17.6601 387.05 26.9017C386.555 33.5937 378.263 54.5596 391.146 57.5041C402.836 60.1742 428.166 51.7557 440.546 49.2529C522.168 32.7772 599.968 27.6713 683.872 52.5252C763.982 76.2617 827.288 125.528 901.783 158.573C908.896 161.731 917.562 164.435 924.408 167.647C925.231 168.035 927.226 168.196 926.242 169.4C924.228 171.876 897.072 171.99 892.267 171.823C847.571 170.244 802.581 161.015 759.097 151.754L787.437 169.287C830.045 197.835 865.981 236.133 877.852 278.292C875.483 279.59 858.479 267.806 855.3 265.986C790.495 228.912 710.888 198.838 630.738 201.977C574.786 204.172 513.475 223.405 464.864 242.129C440.03 251.692 415.377 264.895 390.088 273.146C351.041 285.888 309.022 279.149 321.154 239.024C323.537 231.147 332.337 218.814 328.355 210.991C324.259 202.954 311.792 207.444 305.1 209.613C276.218 218.968 247.462 232.178 218.76 242.356C171.395 259.153 87.5511 286.784 35.2467 288.263C33.286 288.845 28.3138 289.441 27.0022 288.109C36.6052 207.853 46.6164 127.81 57.0357 47.9747C72.9225 48.5502 88.5348 48.3762 103.88 47.446V47.4728Z" fill="white"/>
<path d="M52.4583 47.4661C57.2565 47.0111 58.2268 48.4967 55.0749 51.7021L50.9259 85.6772C52.2442 85.7576 51.8293 88.5481 50.5511 88.7689C50.0024 98.3585 48.8313 107.895 47.0646 117.337C41.256 174.874 34.2094 232.271 26.0452 289.521C17.4794 290.873 8.75309 292.64 0 291.04L29.458 49.7548C29.4915 49.4938 30.8968 47.9279 31.3117 47.6602C34.1692 45.8801 48.5636 46.8705 52.4583 47.4661Z" fill="#1E1E1E"/>
<path d="M57.899 48.1755L56.6878 52.4048L27.8186 287.741C27.8186 288.712 32.3089 288.123 33.2726 288.049C31.4858 289.722 28.4878 289.133 26.0386 289.515C33.0651 232.124 40.0649 174.741 47.058 117.33C49.1058 108.396 50.3906 97.9436 50.5446 88.7622L50.9193 85.6705L55.0683 51.6954C55.2825 50.2299 55.4029 49.1859 56.313 47.9345" fill="white"/>
<path d="M50.9258 85.6772C52.3043 74.3812 53.442 62.958 55.0748 51.7021L50.9258 85.6772Z" fill="white"/>
<path d="M47.0646 117.33C48.2223 107.821 49.3934 98.2715 50.5511 88.7622C51.7356 89.7192 50.966 91.787 50.8187 93.0919C50.0826 99.7906 49.2528 106.509 48.3628 113.188C48.1888 114.493 48.4364 116.681 47.0579 117.33H47.0646Z" fill="white"/>
<path d="M381.663 160.955C384.126 138.249 384.601 72.9223 415.223 65.9627C450.296 57.9926 446.742 126.759 446.207 143.616C445.29 172.465 444.574 226.416 409.287 238.274C369.524 251.631 380.01 176.146 381.663 160.955ZM426.914 148.582C427.63 137.948 426.225 98.044 416.073 100.005C404.061 102.327 399.731 139.206 397.951 156.451C396.733 168.269 394.284 207.866 408.096 205.082C422.511 202.184 425.89 163.853 426.914 148.575V148.582Z" fill="#FF313F"/>
<path d="M453.976 60.0202C471.951 56.9955 480.985 55.7507 498.585 53.8435C499.689 64.2362 500.151 71.2293 501.021 86.3732C490.367 87.551 484.679 88.3942 473.115 90.3817C473.57 102.34 473.677 108.965 473.885 122.296C484.605 120.168 489.845 119.237 499.481 117.933C500.204 133.886 500.532 142.298 501.275 157.91C491.438 159.449 485.91 160.587 474.5 163.204C475.016 181.085 475.203 199.126 477.686 216.88C469.769 218.888 465.6 220.032 457.208 222.414C449.767 168.691 460.287 113.884 453.983 60.0269L453.976 60.0202Z" fill="#FF313F"/>
<path d="M505.873 53.1008C523.513 51.4679 532.487 51.3073 550.454 51.5014C550.782 61.9141 550.883 68.5391 551.037 82.7194C540.122 83.2414 534.668 83.6028 523.834 84.4192C524.275 95.9561 524.476 102.267 524.878 114.981C534.18 113.824 538.857 113.181 548.213 112.01C548.346 126.826 548.4 134.589 548.547 149.171C539.553 151.225 535.056 152.296 526.102 154.042C526.718 171.662 527.26 189.296 528.364 206.896C522.77 208.354 519.979 208.963 514.391 209.72C510.068 157.609 510.048 105.231 505.873 53.1075V53.1008Z" fill="#FF313F"/>
<path d="M574.519 52.1773C585.232 52.6323 590.586 52.9535 601.233 53.5759C629.768 57.9257 625.505 101.209 623.972 120.208C622.38 139.969 620.405 179.164 595.07 186.358C586.029 187.85 581.512 189.202 572.478 192.126C572.685 145.47 574.391 98.8337 574.512 52.1773H574.519ZM593.812 157.823C600.504 156.846 606.319 151.7 608.387 118.715C610.327 87.6982 604.907 82.0837 597.271 81.8896C594.467 81.816 593.069 81.7892 590.258 81.7558C589.328 107.466 588.344 133.177 587.401 158.887C589.964 158.412 591.242 158.198 593.805 157.823H593.812Z" fill="#FF313F"/>
<path d="M648.077 57.6044C658.121 59.1904 663.288 60.2277 673.493 62.7974C675.768 106.971 674.537 151.091 674.778 195.292C668.621 194.134 665.416 193.478 658.958 192.187C658.677 183.654 658.603 179.11 658.496 169.722C650.78 168.236 646.859 167.507 639.196 166.342C637.109 175.356 636.112 179.706 634.285 187.616C627.867 186.592 624.695 186.15 618.632 185.615C627.887 142.793 637.115 100.032 648.077 57.6044ZM658.309 140.946C658.255 129.677 658.235 123.895 658.088 112.572C658.075 103.659 658.048 99.2151 657.907 90.636C657.666 90.5824 657.546 90.5557 657.305 90.5088C655.324 98.6329 654.314 102.856 652.306 111.381C649.636 122.162 648.291 127.716 645.708 138.584C650.727 139.44 653.27 139.922 658.315 140.946H658.309Z" fill="#FF313F"/>
<path d="M693.087 151.834C691.012 122.858 688.57 94.0021 683.169 65.414C691.267 67.7629 695.289 69.1012 703.078 72.0792C705.226 87.7651 706.364 103.866 706.785 119.693C707.026 119.78 707.147 119.826 707.388 119.913C715.043 103.638 718.971 96.003 725.918 82.3915C732.951 86.1256 736.304 88.1533 742.467 92.5164C729.625 112.927 718.235 133.94 707.368 155.454C703.473 173.255 701.512 182.169 698.655 198.765C693.803 198.397 691.153 198.042 685.599 197.172C688.021 180.081 689.714 170.659 693.08 151.827L693.087 151.834Z" fill="#FF313F"/>
<path d="M64.9122 82.8332C86.6744 66.2772 114.098 62.958 140.317 59.0432C141.328 67.0468 140.645 74.7693 138.551 92.6168C121.004 94.7181 103.237 96.4981 86.2596 101.745C84.9814 115.022 84.1783 122.885 82.6124 138.818C98.7401 133.973 108.751 133.351 127.275 131.618C124.852 148.488 122.41 165.358 120.181 182.256C102.608 183.447 93.005 183.721 77.9615 187.997C76.429 207.09 74.3545 226.463 74.7628 245.669C65.1196 248.131 60.8301 249.871 55.2021 255.794C55.7442 198.39 58.2537 139.875 64.9055 82.8265L64.9122 82.8332Z" fill="#FF313F"/>
<path d="M153.935 57.1159C165.84 55.3559 171.589 54.4927 181.339 51.749C187.69 99.0411 166.75 154.156 158.948 200.505C170.612 196.757 176.748 193.271 189.47 188.278C187.02 206.748 186.211 214.832 187.368 223.177C167.54 232.305 155.762 237.377 134.094 240.563C128.499 179.131 159.898 118.354 153.935 57.1159Z" fill="#FF313F"/>
<path d="M223.298 45.1975C230.558 45.2912 234.092 45.5254 245.408 43.6718C260.9 94.2095 257.915 149.592 267.518 201.368C259.983 202.385 256.336 201.83 247.824 202.793C245.829 197.44 244.846 193.09 243.106 182.711C232.62 184.504 227.119 186.07 216.204 189.657C214.11 201.281 213.166 206.293 212.249 212.61C202.439 216.391 197.426 218.627 188.038 222.876C198.517 163.772 220.059 105.465 223.298 45.1975ZM238.689 146.4C237.291 130.968 236.755 122.496 235.751 106.737C235.062 94.2831 234.774 88.1198 234.045 77.2989C233.824 77.3257 233.71 77.339 233.489 77.3658C232.238 88.4276 231.455 94.7649 229.702 107.747C227.353 124.216 225.941 133.19 223.164 149.826C229.294 148.267 232.385 147.571 238.682 146.407L238.689 146.4Z" fill="#FF313F"/>
<path d="M270.49 119.351C271.694 83.6696 278.433 33.7609 321.596 26.025C351.636 20.6447 346.945 63.5937 346.323 80.7452C341.692 77.6268 338.333 77.0847 330.557 77.0178C331.172 61.914 326.762 53.8101 319.087 55.5767C298.435 60.328 296.153 96.6721 294.581 114.413C293.356 128.251 288.805 166.924 304.491 168.49C311.049 169.146 318.939 159.349 322.807 142.499C316.851 142.037 313.653 142.231 307.034 142.954C309.142 127.214 310.226 118.454 312.167 101.872C328.208 99.6835 335.602 99.2017 344.596 105.238C343.472 115.851 342.85 121.312 341.572 131.818C336.599 161.644 331.259 191.839 298.582 197.152C265.029 202.613 269.988 134.749 270.503 119.351H270.49Z" fill="#FF313F"/>
</svg>
