<svg width="792" height="250" viewBox="0 0 792 250" fill="none" xmlns="http://www.w3.org/2000/svg">
<path d="M88.7844 40.5737C128.517 37.2776 161.358 30.9252 198.513 21.2768C229.556 13.2164 284.061 -7.57873 316.991 2.87876C327.479 6.20479 331.434 15.1041 330.835 23.0147C330.415 28.7378 323.314 46.6564 334.341 49.1734C344.349 51.4507 365.983 44.2593 376.56 42.1318C446.347 28.0487 512.837 23.6739 584.571 44.9185C653.07 65.2042 707.155 107.334 770.859 135.59C776.941 138.287 784.343 140.594 790.216 143.351C790.905 143.68 792.613 143.83 791.774 144.849C790.066 146.976 766.843 147.066 762.738 146.916C724.534 145.568 686.06 137.688 648.905 129.777L673.116 144.759C709.552 169.15 740.265 201.901 750.393 237.948C748.356 239.056 733.823 228.988 731.126 227.43C675.722 195.728 607.674 170.019 539.146 172.716C491.323 174.603 438.916 191.024 397.355 207.025C376.111 215.205 355.046 226.501 333.442 233.543C300.062 244.45 264.135 238.667 274.502 204.388C276.54 197.646 284.061 187.098 280.645 180.416C277.229 173.734 266.472 177.39 260.779 179.248C236.088 187.248 211.518 198.545 186.977 207.234C146.495 221.587 74.8211 245.199 30.1146 246.487C28.4366 246.997 24.1817 247.506 23.073 246.368C31.2832 177.75 39.8529 109.341 48.7523 41.0831C62.3261 41.5625 75.6901 41.4127 88.7844 40.6336V40.5737Z" fill="#FF313F"/>
<path d="M44.8264 40.574C48.9315 40.1845 49.7705 41.4429 47.0737 44.1997L43.5379 73.2349C44.6766 73.2949 44.317 75.692 43.2083 75.8718C42.7289 84.082 41.7401 92.2322 40.2419 100.293C35.2678 149.464 29.245 198.545 22.2634 247.477C14.9521 248.645 7.49104 250.143 0 248.765L25.1399 42.5217C25.1399 42.3119 26.3685 40.9635 26.728 40.7238C29.1551 39.1956 41.4704 40.0346 44.7964 40.544L44.8264 40.574Z" fill="#1E1E1E"/>
<path d="M49.4714 41.1728L48.4226 44.7984L23.7621 245.978C23.7621 246.817 27.5975 246.307 28.4365 246.248C26.9084 247.686 24.3614 247.176 22.2639 247.506C28.2867 198.455 34.2496 149.403 40.2424 100.322C41.9803 92.6812 43.089 83.7519 43.2089 75.9012L43.5385 73.2644L47.0742 44.2291C47.254 42.9706 47.3739 42.0717 48.123 41.0229" fill="#EC2E4D"/>
<path d="M43.5081 73.2345C44.6767 63.586 45.6655 53.8177 47.0438 44.1992L43.5081 73.2345Z" fill="#EC2E4D"/>
<path d="M40.2117 100.292C41.2005 92.1721 42.1893 83.9919 43.1781 75.8716C44.1969 76.6806 43.5377 78.4485 43.4178 79.5871C42.7886 85.3103 42.0694 91.0634 41.3203 96.7566C41.1705 97.8653 41.3803 99.753 40.2117 100.292Z" fill="#EC2E4D"/>
<path d="M326.25 137.597C328.348 118.181 328.767 62.3574 354.926 56.3946C384.92 49.5927 381.864 108.382 381.414 122.765C380.635 147.426 380.006 193.541 349.862 203.668C315.882 215.085 324.842 150.572 326.25 137.567V137.597ZM364.934 127.02C365.533 117.941 364.334 83.8118 355.675 85.4898C345.397 87.4674 341.712 118.99 340.183 133.732C339.135 143.83 337.037 177.69 348.843 175.292C361.158 172.805 364.065 140.055 364.934 126.99V127.02Z" fill="white"/>
<path d="M388.067 51.301C403.438 48.7241 411.169 47.6454 426.211 46.0273C427.17 54.9267 427.559 60.8896 428.279 73.8341C419.169 74.8529 414.315 75.572 404.427 77.25C404.817 87.4678 404.906 93.131 405.086 104.517C414.255 102.69 418.72 101.911 426.96 100.802C427.589 114.436 427.859 121.627 428.488 134.991C420.068 136.309 415.364 137.268 405.596 139.516C406.045 154.797 406.195 170.229 408.322 185.391C401.551 187.099 397.985 188.087 390.823 190.125C384.471 144.19 393.46 97.356 388.067 51.301Z" fill="white"/>
<path d="M432.413 45.3979C447.485 43.9896 455.156 43.8698 470.527 44.0196C470.797 52.919 470.887 58.5822 471.037 70.7177C461.718 71.1671 457.044 71.4668 447.785 72.156C448.174 82.0142 448.324 87.4077 448.684 98.2847C456.624 97.2959 460.639 96.7565 468.64 95.7378C468.76 108.413 468.79 115.035 468.939 127.5C461.239 129.268 457.403 130.167 449.762 131.665C450.302 146.737 450.751 161.809 451.71 176.851C446.916 178.109 444.549 178.619 439.754 179.278C436.069 134.721 436.039 89.9547 432.473 45.3979H432.413Z" fill="white"/>
<path d="M491.114 44.6191C500.283 45.0087 504.837 45.2784 513.946 45.8177C538.337 49.5333 534.682 86.539 533.393 102.78C532.045 119.679 530.337 153.179 508.673 159.322C500.942 160.61 497.077 161.749 489.376 164.266C489.556 124.384 491.024 84.5014 491.114 44.6191ZM507.594 134.901C513.317 134.062 518.291 129.657 520.059 101.461C521.707 74.9429 517.093 70.1486 510.56 69.9688C508.163 69.9089 506.965 69.8789 504.568 69.849C503.788 91.8127 502.92 113.806 502.14 135.77C504.328 135.351 505.437 135.171 507.624 134.871L507.594 134.901Z" fill="white"/>
<path d="M553.977 49.2334C562.577 50.5818 566.982 51.4807 575.702 53.6681C577.649 91.4229 576.6 129.148 576.81 166.933C571.536 165.944 568.81 165.374 563.296 164.266C563.057 156.985 562.997 153.089 562.907 145.059C556.315 143.8 552.959 143.171 546.397 142.182C544.599 149.883 543.76 153.599 542.202 160.37C536.718 159.502 533.991 159.112 528.808 158.663C536.718 122.046 544.599 85.49 553.977 49.2334ZM562.727 120.488C562.667 110.84 562.667 105.926 562.547 96.2472C562.547 88.6363 562.517 84.8308 562.397 77.4896C562.188 77.4596 562.098 77.4297 561.888 77.3697C560.21 84.3214 559.341 87.9171 557.603 95.2284C555.326 104.457 554.157 109.192 551.97 118.481C556.255 119.2 558.442 119.619 562.757 120.488H562.727Z" fill="white"/>
<path d="M592.452 129.807C590.684 105.027 588.586 80.3661 583.972 55.9453C590.894 57.9529 594.34 59.0915 600.992 61.6385C602.819 75.0624 603.808 88.816 604.168 102.33C604.378 102.39 604.467 102.45 604.677 102.51C611.209 88.6062 614.565 82.0741 620.528 70.448C626.551 73.6541 629.398 75.3621 634.671 79.1076C623.704 96.5468 613.966 114.525 604.677 132.923C601.351 148.145 599.673 155.756 597.216 169.959C593.081 169.659 590.804 169.33 586.069 168.611C588.137 153.988 589.575 145.958 592.482 129.837L592.452 129.807Z" fill="white"/>
<path d="M55.464 70.8076C74.0717 56.6645 97.5037 53.8179 119.917 50.4619C120.786 57.2937 120.187 63.9158 118.419 79.1676C103.407 80.9654 88.2148 82.4936 73.7121 86.9583C72.6334 98.3147 71.9442 105.027 70.5959 118.66C84.3794 114.525 92.9491 113.986 108.77 112.518C106.703 126.93 104.605 141.373 102.717 155.816C87.7054 156.835 79.4952 157.074 66.6406 160.73C65.3222 177.061 63.5543 193.601 63.9139 210.021C55.6737 212.119 52.0181 213.617 47.1938 218.681C47.6433 169.599 49.8007 119.589 55.4939 70.8076H55.464Z" fill="white"/>
<path d="M131.573 48.8438C141.76 47.3456 146.674 46.5965 155.005 44.2593C160.428 84.6809 142.539 131.815 135.857 171.427C145.835 168.221 151.079 165.255 161.956 160.97C159.859 176.761 159.17 183.653 160.158 190.814C143.199 198.605 133.131 202.949 114.613 205.676C109.819 153.149 136.666 101.221 131.573 48.8438Z" fill="white"/>
<path d="M190.842 38.626C197.045 38.7159 200.071 38.8957 209.75 37.3076C222.994 80.5159 220.447 127.859 228.657 172.116C222.215 172.985 219.099 172.506 211.817 173.345C210.109 168.76 209.27 165.045 207.772 156.175C198.813 157.704 194.108 159.052 184.76 162.108C182.962 172.056 182.153 176.341 181.374 181.735C172.984 184.971 168.699 186.889 160.668 190.514C169.628 139.995 188.056 90.1344 190.812 38.626H190.842ZM204.027 125.163C202.828 111.978 202.379 104.727 201.51 91.2431C200.91 80.6058 200.671 75.3321 200.041 66.0732C199.862 66.0732 199.772 66.1032 199.562 66.1331C198.483 75.6018 197.824 80.9954 196.326 92.1121C194.318 106.195 193.12 113.866 190.752 128.069C195.996 126.751 198.633 126.151 204.027 125.133V125.163Z" fill="white"/>
<path d="M231.204 102.03C232.223 71.5268 238.006 28.8578 274.892 22.2657C300.571 17.6512 296.556 54.3873 296.016 69.0397C292.061 66.3729 289.185 65.9235 282.533 65.8635C283.072 52.949 279.296 46.0273 272.734 47.5255C255.085 51.6006 253.138 82.6435 251.789 97.8353C250.741 109.671 246.845 142.722 260.269 144.07C265.872 144.639 272.614 136.249 275.91 121.867C270.817 121.477 268.09 121.627 262.427 122.256C264.224 108.802 265.153 101.311 266.801 87.1381C280.525 85.2504 286.847 84.8608 294.518 90.0147C293.559 99.0938 293.02 103.768 291.941 112.727C287.686 138.227 283.132 164.026 255.205 168.581C226.53 173.255 230.754 115.244 231.204 102.06V102.03Z" fill="white"/>
</svg>
