<svg width="943" height="724" viewBox="0 0 943 724" fill="none" xmlns="http://www.w3.org/2000/svg">
<path d="M519.633 287.389C510.943 299.119 505.639 313.557 505.639 328.783C505.639 330.25 505.639 331.603 505.752 333.069L524.372 314.459L519.633 287.389ZM541.864 365.214L516.247 363.523C524.598 375.704 537.237 384.389 552.133 387.434L541.977 365.214H541.864ZM568.609 259.756C559.694 260.432 551.118 262.914 543.444 266.974L568.609 278.817L592.646 262.914C585.198 260.32 577.073 259.192 568.609 259.756ZM568.384 296.412L541.3 318.632L550.892 350.101L584.747 348.409L595.355 315.136L568.271 296.412H568.384ZM595.919 360.59L583.844 385.517C598.966 380.554 611.944 370.064 620.408 356.642L595.919 360.59ZM617.022 279.607L612.282 307.917L631.241 323.933C631.354 322.467 631.354 321.001 631.354 319.534C631.354 303.969 625.937 290.096 616.909 279.607H617.022ZM617.022 279.607L612.282 307.917L631.241 323.933C631.354 322.467 631.354 321.001 631.354 319.534C631.354 303.969 625.937 290.096 616.909 279.607H617.022ZM595.919 360.59L583.844 385.517C598.966 380.554 611.944 370.064 620.408 356.642L595.919 360.59ZM568.384 296.412L541.3 318.632L550.892 350.101L584.747 348.409L595.355 315.136L568.271 296.412H568.384ZM568.609 259.756C559.694 260.432 551.118 262.914 543.444 266.974L568.609 278.817L592.646 262.914C585.198 260.32 577.073 259.192 568.609 259.756ZM541.864 365.214L516.247 363.523C524.598 375.704 537.237 384.389 552.133 387.434L541.977 365.214H541.864ZM519.633 287.389C510.943 299.119 505.639 313.557 505.639 328.783C505.639 330.25 505.639 331.603 505.752 333.069L524.372 314.459L519.633 287.389ZM519.633 287.389C510.943 299.119 505.639 313.557 505.639 328.783C505.639 330.25 505.639 331.603 505.752 333.069L524.372 314.459L519.633 287.389ZM541.864 365.214L516.247 363.523C524.598 375.704 537.237 384.389 552.133 387.434L541.977 365.214H541.864ZM568.609 259.756C559.694 260.432 551.118 262.914 543.444 266.974L568.609 278.817L592.646 262.914C585.198 260.32 577.073 259.192 568.609 259.756ZM568.384 296.412L541.3 318.632L550.892 350.101L584.747 348.409L595.355 315.136L568.271 296.412H568.384ZM595.919 360.59L583.844 385.517C598.966 380.554 611.944 370.064 620.408 356.642L595.919 360.59ZM617.022 279.607L612.282 307.917L631.241 323.933C631.354 322.467 631.354 321.001 631.354 319.534C631.354 303.969 625.937 290.096 616.909 279.607H617.022ZM617.022 279.607L612.282 307.917L631.241 323.933C631.354 322.467 631.354 321.001 631.354 319.534C631.354 303.969 625.937 290.096 616.909 279.607H617.022ZM595.919 360.59L583.844 385.517C598.966 380.554 611.944 370.064 620.408 356.642L595.919 360.59ZM568.384 296.412L541.3 318.632L550.892 350.101L584.747 348.409L595.355 315.136L568.271 296.412H568.384ZM568.609 259.756C559.694 260.432 551.118 262.914 543.444 266.974L568.609 278.817L592.646 262.914C585.198 260.32 577.073 259.192 568.609 259.756ZM541.864 365.214L516.247 363.523C524.598 375.704 537.237 384.389 552.133 387.434L541.977 365.214H541.864ZM519.633 287.389C510.943 299.119 505.639 313.557 505.639 328.783C505.639 330.25 505.639 331.603 505.752 333.069L524.372 314.459L519.633 287.389ZM519.633 287.389C510.943 299.119 505.639 313.557 505.639 328.783C505.639 330.25 505.639 331.603 505.752 333.069L524.372 314.459L519.633 287.389ZM541.864 365.214L516.247 363.523C524.598 375.704 537.237 384.389 552.133 387.434L541.977 365.214H541.864ZM568.609 259.756C559.694 260.432 551.118 262.914 543.444 266.974L568.609 278.817L592.646 262.914C585.198 260.32 577.073 259.192 568.609 259.756ZM568.384 296.412L541.3 318.632L550.892 350.101L584.747 348.409L595.355 315.136L568.271 296.412H568.384ZM595.919 360.59L583.844 385.517C598.966 380.554 611.944 370.064 620.408 356.642L595.919 360.59ZM617.022 279.607L612.282 307.917L631.241 323.933C631.354 322.467 631.354 321.001 631.354 319.534C631.354 303.969 625.937 290.096 616.909 279.607H617.022ZM617.022 279.607L612.282 307.917L631.241 323.933C631.354 322.467 631.354 321.001 631.354 319.534C631.354 303.969 625.937 290.096 616.909 279.607H617.022ZM595.919 360.59L583.844 385.517C598.966 380.554 611.944 370.064 620.408 356.642L595.919 360.59ZM568.384 296.412L541.3 318.632L550.892 350.101L584.747 348.409L595.355 315.136L568.271 296.412H568.384ZM568.609 259.756C559.694 260.432 551.118 262.914 543.444 266.974L568.609 278.817L592.646 262.914C585.198 260.32 577.073 259.192 568.609 259.756ZM541.864 365.214L516.247 363.523C524.598 375.704 537.237 384.389 552.133 387.434L541.977 365.214H541.864ZM519.633 287.389C510.943 299.119 505.639 313.557 505.639 328.783C505.639 330.25 505.639 331.603 505.752 333.069L524.372 314.459L519.633 287.389ZM519.633 287.389C510.943 299.119 505.639 313.557 505.639 328.783C505.639 330.25 505.639 331.603 505.752 333.069L524.372 314.459L519.633 287.389ZM541.864 365.214L516.247 363.523C524.598 375.704 537.237 384.389 552.133 387.434L541.977 365.214H541.864ZM568.609 259.756C559.694 260.432 551.118 262.914 543.444 266.974L568.609 278.817L592.646 262.914C585.198 260.32 577.073 259.192 568.609 259.756ZM568.384 296.412L541.3 318.632L550.892 350.101L584.747 348.409L595.355 315.136L568.271 296.412H568.384ZM595.919 360.59L583.844 385.517C598.966 380.554 611.944 370.064 620.408 356.642L595.919 360.59ZM617.022 279.607L612.282 307.917L631.241 323.933C631.354 322.467 631.354 321.001 631.354 319.534C631.354 303.969 625.937 290.096 616.909 279.607H617.022ZM617.022 279.607L612.282 307.917L631.241 323.933C631.354 322.467 631.354 321.001 631.354 319.534C631.354 303.969 625.937 290.096 616.909 279.607H617.022ZM595.919 360.59L583.844 385.517C598.966 380.554 611.944 370.064 620.408 356.642L595.919 360.59ZM568.384 296.412L541.3 318.632L550.892 350.101L584.747 348.409L595.355 315.136L568.271 296.412H568.384ZM568.609 259.756C559.694 260.432 551.118 262.914 543.444 266.974L568.609 278.817L592.646 262.914C585.198 260.32 577.073 259.192 568.609 259.756ZM541.864 365.214L516.247 363.523C524.598 375.704 537.237 384.389 552.133 387.434L541.977 365.214H541.864ZM519.633 287.389C510.943 299.119 505.639 313.557 505.639 328.783C505.639 330.25 505.639 331.603 505.752 333.069L524.372 314.459L519.633 287.389ZM519.633 287.389C510.943 299.119 505.639 313.557 505.639 328.783C505.639 330.25 505.639 331.603 505.752 333.069L524.372 314.459L519.633 287.389ZM541.864 365.214L516.247 363.523C524.598 375.704 537.237 384.389 552.133 387.434L541.977 365.214H541.864ZM568.609 259.756C559.694 260.432 551.118 262.914 543.444 266.974L568.609 278.817L592.646 262.914C585.198 260.32 577.073 259.192 568.609 259.756ZM568.384 296.412L541.3 318.632L550.892 350.101L584.747 348.409L595.355 315.136L568.271 296.412H568.384ZM595.919 360.59L583.844 385.517C598.966 380.554 611.944 370.064 620.408 356.642L595.919 360.59ZM617.022 279.607L612.282 307.917L631.241 323.933C631.354 322.467 631.354 321.001 631.354 319.534C631.354 303.969 625.937 290.096 616.909 279.607H617.022ZM617.022 279.607L612.282 307.917L631.241 323.933C631.354 322.467 631.354 321.001 631.354 319.534C631.354 303.969 625.937 290.096 616.909 279.607H617.022ZM595.919 360.59L583.844 385.517C598.966 380.554 611.944 370.064 620.408 356.642L595.919 360.59ZM568.384 296.412L541.3 318.632L550.892 350.101L584.747 348.409L595.355 315.136L568.271 296.412H568.384ZM568.609 259.756C559.694 260.432 551.118 262.914 543.444 266.974L568.609 278.817L592.646 262.914C585.198 260.32 577.073 259.192 568.609 259.756ZM541.864 365.214L516.247 363.523C524.598 375.704 537.237 384.389 552.133 387.434L541.977 365.214H541.864ZM519.633 287.389C510.943 299.119 505.639 313.557 505.639 328.783C505.639 330.25 505.639 331.603 505.752 333.069L524.372 314.459L519.633 287.389ZM485.213 481.84L463.433 483.419V589.103L485.213 587.524C501.238 586.396 508.912 578.726 508.912 561.695V504.285C508.912 487.253 501.238 480.712 485.213 481.952V481.84ZM519.633 287.389C510.943 299.119 505.639 313.557 505.639 328.783C505.639 330.25 505.639 331.603 505.752 333.069L524.372 314.459L519.633 287.389ZM541.864 365.214L516.247 363.523C524.598 375.704 537.237 384.389 552.133 387.434L541.977 365.214H541.864ZM568.609 259.756C559.694 260.432 551.118 262.914 543.444 266.974L568.609 278.817L592.646 262.914C585.198 260.32 577.073 259.192 568.609 259.756ZM568.384 296.412L541.3 318.632L550.892 350.101L584.747 348.409L595.355 315.136L568.271 296.412H568.384ZM595.919 360.59L583.844 385.517C598.966 380.554 611.944 370.064 620.408 356.642L595.919 360.59ZM608.333 470.448H607.768L591.631 546.243L624.583 543.874L608.333 470.561V470.448ZM617.022 279.607L612.282 307.917L631.241 323.933C631.354 322.467 631.354 321.001 631.354 319.534C631.354 303.969 625.937 290.096 616.909 279.607H617.022ZM617.022 279.607L612.282 307.917L631.241 323.933C631.354 322.467 631.354 321.001 631.354 319.534C631.354 303.969 625.937 290.096 616.909 279.607H617.022ZM583.844 385.517C598.966 380.554 611.944 370.064 620.408 356.642L595.919 360.59L583.844 385.517ZM584.86 348.522L595.468 315.248L568.384 296.525L541.3 318.745L550.892 350.213L584.747 348.522H584.86ZM592.646 262.914C585.198 260.32 577.073 259.192 568.609 259.756C559.694 260.432 551.118 262.914 543.444 266.974L568.609 278.817L592.646 262.914ZM516.247 363.635C524.598 375.817 537.237 384.502 552.133 387.547L541.977 365.327L516.36 363.635H516.247ZM519.633 287.389C510.943 299.119 505.639 313.557 505.639 328.783C505.639 330.25 505.639 331.603 505.752 333.069L524.372 314.459L519.633 287.389ZM608.333 470.448H607.768L591.631 546.243L624.583 543.874L608.333 470.561V470.448ZM485.213 481.84L463.433 483.419V589.103L485.213 587.524C501.238 586.396 508.912 578.726 508.912 561.695V504.285C508.912 487.253 501.238 480.712 485.213 481.952V481.84ZM74.4393 258.177L435.108 231.784V27.408L58.7532 54.9288V259.305L33.5876 261.109V465.485L404.413 438.303V642.678L809.431 613.014V408.639L864.841 404.578V200.202L74.4393 258.177ZM324.741 57.2974L408.25 51.2067V80.1938L357.016 83.9158V119.106L408.25 115.384V144.371L357.016 148.093V186.78L408.25 183.058V212.045L324.741 218.136V57.2974ZM199.139 66.5462L231.414 64.1776V128.355L276.328 125.084V60.9067L308.603 58.5381V219.264L276.328 221.633V154.071L231.414 157.342V224.904L199.139 227.272V66.5462ZM85.6115 74.7798L191.916 66.9973V97.3379L154.901 100.045V230.43L122.626 232.799V102.413L85.4986 105.12V74.7798H85.6115ZM542.315 559.214C542.315 593.502 525.275 612.112 485.213 615.045L431.158 618.992V458.266L485.213 454.319C525.162 451.386 542.315 467.515 542.315 501.803V559.214ZM637.899 603.878L631.015 572.523L585.424 575.907L578.54 608.277L544.234 610.759L582.603 447.213L633.724 443.491L672.093 601.397L637.899 603.878ZM733.822 540.265V596.885L698.838 599.48V542.859L655.73 441.912L690.487 439.318L716.217 513.308H716.556L742.286 435.596L777.043 433.001L733.935 540.265H733.822ZM658.099 237.31L740.706 231.22V260.207L690.375 263.929V303.744L740.706 300.022V326.415L690.375 330.137V395.668L658.099 398.036V237.31ZM568.609 243.852C611.944 240.694 647.153 274.193 647.153 318.519C647.153 362.846 611.944 401.42 568.609 404.691C525.275 407.849 490.179 374.35 490.179 330.024C490.179 285.697 525.388 247.123 568.609 243.965V243.852ZM89.3355 439.656L57.0604 442.025V281.299L89.3355 278.93V439.656ZM132.444 436.498L89.6741 357.883L131.993 275.885L167.653 273.29L124.996 355.402L168.105 434.016L132.444 436.611V436.498ZM208.054 430.971L175.779 433.34V272.614L208.054 270.245V430.971ZM337.38 323.933L303.186 326.415V318.294C303.186 298.443 295.512 290.209 279.601 291.45C263.689 292.578 255.902 301.939 255.902 321.79V372.433C255.902 392.284 263.689 400.518 279.601 399.277C295.512 398.149 303.186 388.788 303.186 368.937V360.703L337.38 358.222V365.327C337.38 403.338 316.615 425.332 279.601 428.039C242.586 430.746 221.709 411.797 221.709 373.787V325.4C221.709 287.389 242.586 265.395 279.601 262.688C316.615 259.981 337.38 278.93 337.38 316.94V323.933ZM383.197 418.113L350.922 420.482V259.756L383.197 257.387V418.113ZM383.535 336.34L425.854 254.342L461.515 251.748L418.857 333.859L461.966 412.474L426.306 415.068L383.535 336.453V336.34ZM834.484 253.327L784.153 257.049V296.864L834.484 293.142V319.534L784.153 323.257V388.788L751.878 391.156V230.43L834.484 224.34V253.327ZM631.467 319.534C631.467 303.969 626.05 290.096 617.022 279.607L612.282 307.917L631.241 323.933C631.354 322.467 631.354 321.001 631.354 319.534H631.467ZM607.881 470.561L591.744 546.243L624.696 543.874L608.445 470.561H607.881ZM620.52 356.642L596.032 360.59L583.957 385.517C599.079 380.554 612.057 370.064 620.52 356.642ZM584.86 348.522L595.468 315.248L568.384 296.525L541.3 318.745L550.892 350.213L584.747 348.522H584.86ZM592.646 262.914C585.198 260.32 577.073 259.192 568.609 259.756C559.694 260.432 551.118 262.914 543.444 266.974L568.609 278.817L592.646 262.914ZM516.247 363.635C524.598 375.817 537.237 384.502 552.133 387.547L541.977 365.327L516.36 363.635H516.247ZM519.633 287.389C510.943 299.119 505.639 313.557 505.639 328.783C505.639 330.25 505.639 331.603 505.752 333.069L524.372 314.459L519.633 287.389ZM485.213 481.84L463.433 483.419V589.103L485.213 587.524C501.238 586.396 508.912 578.726 508.912 561.695V504.285C508.912 487.253 501.238 480.712 485.213 481.952V481.84ZM485.213 481.84L463.433 483.419V589.103L485.213 587.524C501.238 586.396 508.912 578.726 508.912 561.695V504.285C508.912 487.253 501.238 480.712 485.213 481.952V481.84ZM519.633 287.389C510.943 299.119 505.639 313.557 505.639 328.783C505.639 330.25 505.639 331.603 505.752 333.069L524.372 314.459L519.633 287.389ZM541.864 365.214L516.247 363.523C524.598 375.704 537.237 384.389 552.133 387.434L541.977 365.214H541.864ZM568.609 259.756C559.694 260.432 551.118 262.914 543.444 266.974L568.609 278.817L592.646 262.914C585.198 260.32 577.073 259.192 568.609 259.756ZM568.384 296.412L541.3 318.632L550.892 350.101L584.747 348.409L595.355 315.136L568.271 296.412H568.384ZM595.919 360.59L583.844 385.517C598.966 380.554 611.944 370.064 620.408 356.642L595.919 360.59ZM617.022 279.607L612.282 307.917L631.241 323.933C631.354 322.467 631.354 321.001 631.354 319.534C631.354 303.969 625.937 290.096 616.909 279.607H617.022ZM617.022 279.607L612.282 307.917L631.241 323.933C631.354 322.467 631.354 321.001 631.354 319.534C631.354 303.969 625.937 290.096 616.909 279.607H617.022ZM595.919 360.59L583.844 385.517C598.966 380.554 611.944 370.064 620.408 356.642L595.919 360.59ZM568.384 296.412L541.3 318.632L550.892 350.101L584.747 348.409L595.355 315.136L568.271 296.412H568.384ZM568.609 259.756C559.694 260.432 551.118 262.914 543.444 266.974L568.609 278.817L592.646 262.914C585.198 260.32 577.073 259.192 568.609 259.756ZM541.864 365.214L516.247 363.523C524.598 375.704 537.237 384.389 552.133 387.434L541.977 365.214H541.864ZM519.633 287.389C510.943 299.119 505.639 313.557 505.639 328.783C505.639 330.25 505.639 331.603 505.752 333.069L524.372 314.459L519.633 287.389ZM485.213 481.84L463.433 483.419V589.103L485.213 587.524C501.238 586.396 508.912 578.726 508.912 561.695V504.285C508.912 487.253 501.238 480.712 485.213 481.952V481.84ZM519.633 287.389C510.943 299.119 505.639 313.557 505.639 328.783C505.639 330.25 505.639 331.603 505.752 333.069L524.372 314.459L519.633 287.389ZM541.864 365.214L516.247 363.523C524.598 375.704 537.237 384.389 552.133 387.434L541.977 365.214H541.864ZM568.609 259.756C559.694 260.432 551.118 262.914 543.444 266.974L568.609 278.817L592.646 262.914C585.198 260.32 577.073 259.192 568.609 259.756ZM568.384 296.412L541.3 318.632L550.892 350.101L584.747 348.409L595.355 315.136L568.271 296.412H568.384ZM595.919 360.59L583.844 385.517C598.966 380.554 611.944 370.064 620.408 356.642L595.919 360.59ZM617.022 279.607L612.282 307.917L631.241 323.933C631.354 322.467 631.354 321.001 631.354 319.534C631.354 303.969 625.937 290.096 616.909 279.607H617.022ZM617.022 279.607L612.282 307.917L631.241 323.933C631.354 322.467 631.354 321.001 631.354 319.534C631.354 303.969 625.937 290.096 616.909 279.607H617.022ZM595.919 360.59L583.844 385.517C598.966 380.554 611.944 370.064 620.408 356.642L595.919 360.59ZM568.384 296.412L541.3 318.632L550.892 350.101L584.747 348.409L595.355 315.136L568.271 296.412H568.384ZM568.609 259.756C559.694 260.432 551.118 262.914 543.444 266.974L568.609 278.817L592.646 262.914C585.198 260.32 577.073 259.192 568.609 259.756ZM541.864 365.214L516.247 363.523C524.598 375.704 537.237 384.389 552.133 387.434L541.977 365.214H541.864ZM519.633 287.389C510.943 299.119 505.639 313.557 505.639 328.783C505.639 330.25 505.639 331.603 505.752 333.069L524.372 314.459L519.633 287.389ZM519.633 287.389C510.943 299.119 505.639 313.557 505.639 328.783C505.639 330.25 505.639 331.603 505.752 333.069L524.372 314.459L519.633 287.389ZM541.864 365.214L516.247 363.523C524.598 375.704 537.237 384.389 552.133 387.434L541.977 365.214H541.864ZM568.609 259.756C559.694 260.432 551.118 262.914 543.444 266.974L568.609 278.817L592.646 262.914C585.198 260.32 577.073 259.192 568.609 259.756ZM568.384 296.412L541.3 318.632L550.892 350.101L584.747 348.409L595.355 315.136L568.271 296.412H568.384ZM595.919 360.59L583.844 385.517C598.966 380.554 611.944 370.064 620.408 356.642L595.919 360.59ZM617.022 279.607L612.282 307.917L631.241 323.933C631.354 322.467 631.354 321.001 631.354 319.534C631.354 303.969 625.937 290.096 616.909 279.607H617.022ZM617.022 279.607L612.282 307.917L631.241 323.933C631.354 322.467 631.354 321.001 631.354 319.534C631.354 303.969 625.937 290.096 616.909 279.607H617.022ZM595.919 360.59L583.844 385.517C598.966 380.554 611.944 370.064 620.408 356.642L595.919 360.59ZM568.384 296.412L541.3 318.632L550.892 350.101L584.747 348.409L595.355 315.136L568.271 296.412H568.384ZM568.609 259.756C559.694 260.432 551.118 262.914 543.444 266.974L568.609 278.817L592.646 262.914C585.198 260.32 577.073 259.192 568.609 259.756ZM541.864 365.214L516.247 363.523C524.598 375.704 537.237 384.389 552.133 387.434L541.977 365.214H541.864ZM519.633 287.389C510.943 299.119 505.639 313.557 505.639 328.783C505.639 330.25 505.639 331.603 505.752 333.069L524.372 314.459L519.633 287.389ZM519.633 287.389C510.943 299.119 505.639 313.557 505.639 328.783C505.639 330.25 505.639 331.603 505.752 333.069L524.372 314.459L519.633 287.389ZM541.864 365.214L516.247 363.523C524.598 375.704 537.237 384.389 552.133 387.434L541.977 365.214H541.864ZM568.609 259.756C559.694 260.432 551.118 262.914 543.444 266.974L568.609 278.817L592.646 262.914C585.198 260.32 577.073 259.192 568.609 259.756ZM568.384 296.412L541.3 318.632L550.892 350.101L584.747 348.409L595.355 315.136L568.271 296.412H568.384ZM595.919 360.59L583.844 385.517C598.966 380.554 611.944 370.064 620.408 356.642L595.919 360.59ZM617.022 279.607L612.282 307.917L631.241 323.933C631.354 322.467 631.354 321.001 631.354 319.534C631.354 303.969 625.937 290.096 616.909 279.607H617.022ZM617.022 279.607L612.282 307.917L631.241 323.933C631.354 322.467 631.354 321.001 631.354 319.534C631.354 303.969 625.937 290.096 616.909 279.607H617.022ZM595.919 360.59L583.844 385.517C598.966 380.554 611.944 370.064 620.408 356.642L595.919 360.59ZM568.384 296.412L541.3 318.632L550.892 350.101L584.747 348.409L595.355 315.136L568.271 296.412H568.384ZM568.609 259.756C559.694 260.432 551.118 262.914 543.444 266.974L568.609 278.817L592.646 262.914C585.198 260.32 577.073 259.192 568.609 259.756ZM541.864 365.214L516.247 363.523C524.598 375.704 537.237 384.389 552.133 387.434L541.977 365.214H541.864ZM519.633 287.389C510.943 299.119 505.639 313.557 505.639 328.783C505.639 330.25 505.639 331.603 505.752 333.069L524.372 314.459L519.633 287.389ZM519.633 287.389C510.943 299.119 505.639 313.557 505.639 328.783C505.639 330.25 505.639 331.603 505.752 333.069L524.372 314.459L519.633 287.389ZM541.864 365.214L516.247 363.523C524.598 375.704 537.237 384.389 552.133 387.434L541.977 365.214H541.864ZM568.609 259.756C559.694 260.432 551.118 262.914 543.444 266.974L568.609 278.817L592.646 262.914C585.198 260.32 577.073 259.192 568.609 259.756ZM568.384 296.412L541.3 318.632L550.892 350.101L584.747 348.409L595.355 315.136L568.271 296.412H568.384ZM595.919 360.59L583.844 385.517C598.966 380.554 611.944 370.064 620.408 356.642L595.919 360.59ZM617.022 279.607L612.282 307.917L631.241 323.933C631.354 322.467 631.354 321.001 631.354 319.534C631.354 303.969 625.937 290.096 616.909 279.607H617.022ZM617.022 279.607L612.282 307.917L631.241 323.933C631.354 322.467 631.354 321.001 631.354 319.534C631.354 303.969 625.937 290.096 616.909 279.607H617.022ZM595.919 360.59L583.844 385.517C598.966 380.554 611.944 370.064 620.408 356.642L595.919 360.59ZM568.384 296.412L541.3 318.632L550.892 350.101L584.747 348.409L595.355 315.136L568.271 296.412H568.384ZM568.609 259.756C559.694 260.432 551.118 262.914 543.444 266.974L568.609 278.817L592.646 262.914C585.198 260.32 577.073 259.192 568.609 259.756ZM541.864 365.214L516.247 363.523C524.598 375.704 537.237 384.389 552.133 387.434L541.977 365.214H541.864ZM519.633 287.389C510.943 299.119 505.639 313.557 505.639 328.783C505.639 330.25 505.639 331.603 505.752 333.069L524.372 314.459L519.633 287.389ZM519.633 287.389C510.943 299.119 505.639 313.557 505.639 328.783C505.639 330.25 505.639 331.603 505.752 333.069L524.372 314.459L519.633 287.389ZM541.864 365.214L516.247 363.523C524.598 375.704 537.237 384.389 552.133 387.434L541.977 365.214H541.864ZM568.609 259.756C559.694 260.432 551.118 262.914 543.444 266.974L568.609 278.817L592.646 262.914C585.198 260.32 577.073 259.192 568.609 259.756ZM568.384 296.412L541.3 318.632L550.892 350.101L584.747 348.409L595.355 315.136L568.271 296.412H568.384ZM595.919 360.59L583.844 385.517C598.966 380.554 611.944 370.064 620.408 356.642L595.919 360.59ZM617.022 279.607L612.282 307.917L631.241 323.933C631.354 322.467 631.354 321.001 631.354 319.534C631.354 303.969 625.937 290.096 616.909 279.607H617.022ZM617.022 279.607L612.282 307.917L631.241 323.933C631.354 322.467 631.354 321.001 631.354 319.534C631.354 303.969 625.937 290.096 616.909 279.607H617.022ZM595.919 360.59L583.844 385.517C598.966 380.554 611.944 370.064 620.408 356.642L595.919 360.59ZM568.384 296.412L541.3 318.632L550.892 350.101L584.747 348.409L595.355 315.136L568.271 296.412H568.384ZM568.609 259.756C559.694 260.432 551.118 262.914 543.444 266.974L568.609 278.817L592.646 262.914C585.198 260.32 577.073 259.192 568.609 259.756ZM541.864 365.214L516.247 363.523C524.598 375.704 537.237 384.389 552.133 387.434L541.977 365.214H541.864ZM519.633 287.389C510.943 299.119 505.639 313.557 505.639 328.783C505.639 330.25 505.639 331.603 505.752 333.069L524.372 314.459L519.633 287.389Z" fill="white"/>
<path d="M871.386 172.907L511.959 199.187V66.659L441.879 0L25.9138 30.4533V234.829L0.748291 236.634V481.163L70.8281 547.822L371.46 525.828V661.965L374.169 661.74V664.447L376.877 664.221V666.928L379.586 666.703V669.409L382.294 669.184V671.891L385.002 671.665V674.372L387.711 674.147V676.854L390.419 676.628V679.335L393.128 679.109V681.816L395.836 681.591V684.298L398.544 684.072V686.779L401.253 686.554V689.261L403.961 689.035V691.742L406.67 691.516V694.223L409.378 693.998V696.705L412.086 696.479V699.186L414.795 698.961V701.667L417.503 701.442V704.149L420.212 703.923V706.63L422.92 706.405V709.112L425.628 708.886V711.593L428.337 711.367V714.074L431.045 713.849V716.556L433.754 716.33V719.037L436.462 718.812V721.519L439.17 721.293V724L887.072 691.178V486.802L942.481 482.742V238.213L872.401 171.554L871.386 172.907ZM936.049 479.02L880.64 483.08V687.456L443.684 719.488V716.781L440.976 717.007V714.3L438.268 714.526V711.819L435.559 712.044V709.337L432.851 709.563V706.856L430.142 707.081V704.374L427.434 704.6V701.893L424.726 702.119V699.412L422.017 699.637V696.93L419.309 697.156V694.449L416.6 694.674V691.968L413.892 692.193V689.486L411.184 689.712V687.005L408.475 687.23V684.523L405.767 684.749V682.042L403.058 682.268V679.561L400.35 679.786V677.079L397.642 677.305V674.598L394.933 674.823V672.116L392.225 672.342V669.635L389.516 669.861V667.154L386.808 667.379V664.672L384.1 664.898V662.191L381.391 662.417V659.71L378.683 659.935V657.228L375.974 657.454V521.316L71.8438 543.536L63.8314 535.979L53.2235 525.828L45.2112 518.271L34.4904 508.12L31.782 505.638L26.4781 500.563L21.1741 495.487L15.8702 490.412L13.1618 487.93L7.85784 482.855L5.14944 480.373V243.288L30.315 241.484V35.5289L439.848 5.63951L442.556 8.12089L445.264 10.6023L447.973 13.0837L450.681 15.565L455.985 20.6406L463.997 28.1975L466.706 30.6789L469.414 33.1603L474.718 38.2359L482.731 45.7928L485.439 48.2742L488.147 50.7556L493.451 55.8311L501.464 63.3881L506.768 68.4636V204.601L869.693 178.096L872.401 180.577L875.11 183.058L877.818 185.54L880.527 188.021L883.235 190.503L885.944 192.984L888.652 195.465L891.36 197.947L894.069 200.428L896.777 202.909L899.486 205.391L902.194 207.872L904.902 210.354L907.611 212.835L910.319 215.316L913.027 217.798L915.736 220.279L918.444 222.761L921.153 225.242L923.861 227.723L926.57 230.205L929.278 232.686L931.986 235.167L934.695 237.649L937.403 240.13V477.215L936.049 479.02Z" fill="white"/>
<path d="M519.633 287.389C510.943 299.119 505.639 313.557 505.639 328.783C505.639 330.25 505.639 331.603 505.752 333.069L524.372 314.459L519.633 287.389ZM541.864 365.214L516.247 363.523C524.598 375.704 537.237 384.389 552.133 387.434L541.977 365.214H541.864ZM568.609 259.756C559.694 260.432 551.118 262.914 543.444 266.974L568.609 278.817L592.646 262.914C585.198 260.32 577.073 259.192 568.609 259.756ZM568.384 296.412L541.3 318.632L550.892 350.101L584.747 348.409L595.355 315.136L568.271 296.412H568.384ZM595.919 360.59L583.844 385.517C598.966 380.554 611.944 370.064 620.408 356.642L595.919 360.59ZM617.022 279.607L612.282 307.917L631.241 323.933C631.354 322.467 631.354 321.001 631.354 319.534C631.354 303.969 625.937 290.096 616.909 279.607H617.022ZM617.022 279.607L612.282 307.917L631.241 323.933C631.354 322.467 631.354 321.001 631.354 319.534C631.354 303.969 625.937 290.096 616.909 279.607H617.022ZM595.919 360.59L583.844 385.517C598.966 380.554 611.944 370.064 620.408 356.642L595.919 360.59ZM568.384 296.412L541.3 318.632L550.892 350.101L584.747 348.409L595.355 315.136L568.271 296.412H568.384ZM568.609 259.756C559.694 260.432 551.118 262.914 543.444 266.974L568.609 278.817L592.646 262.914C585.198 260.32 577.073 259.192 568.609 259.756ZM541.864 365.214L516.247 363.523C524.598 375.704 537.237 384.389 552.133 387.434L541.977 365.214H541.864ZM519.633 287.389C510.943 299.119 505.639 313.557 505.639 328.783C505.639 330.25 505.639 331.603 505.752 333.069L524.372 314.459L519.633 287.389ZM519.633 287.389C510.943 299.119 505.639 313.557 505.639 328.783C505.639 330.25 505.639 331.603 505.752 333.069L524.372 314.459L519.633 287.389ZM541.864 365.214L516.247 363.523C524.598 375.704 537.237 384.389 552.133 387.434L541.977 365.214H541.864ZM568.609 259.756C559.694 260.432 551.118 262.914 543.444 266.974L568.609 278.817L592.646 262.914C585.198 260.32 577.073 259.192 568.609 259.756ZM568.384 296.412L541.3 318.632L550.892 350.101L584.747 348.409L595.355 315.136L568.271 296.412H568.384ZM595.919 360.59L583.844 385.517C598.966 380.554 611.944 370.064 620.408 356.642L595.919 360.59ZM617.022 279.607L612.282 307.917L631.241 323.933C631.354 322.467 631.354 321.001 631.354 319.534C631.354 303.969 625.937 290.096 616.909 279.607H617.022ZM617.022 279.607L612.282 307.917L631.241 323.933C631.354 322.467 631.354 321.001 631.354 319.534C631.354 303.969 625.937 290.096 616.909 279.607H617.022ZM595.919 360.59L583.844 385.517C598.966 380.554 611.944 370.064 620.408 356.642L595.919 360.59ZM568.384 296.412L541.3 318.632L550.892 350.101L584.747 348.409L595.355 315.136L568.271 296.412H568.384ZM568.609 259.756C559.694 260.432 551.118 262.914 543.444 266.974L568.609 278.817L592.646 262.914C585.198 260.32 577.073 259.192 568.609 259.756ZM541.864 365.214L516.247 363.523C524.598 375.704 537.237 384.389 552.133 387.434L541.977 365.214H541.864ZM519.633 287.389C510.943 299.119 505.639 313.557 505.639 328.783C505.639 330.25 505.639 331.603 505.752 333.069L524.372 314.459L519.633 287.389ZM519.633 287.389C510.943 299.119 505.639 313.557 505.639 328.783C505.639 330.25 505.639 331.603 505.752 333.069L524.372 314.459L519.633 287.389ZM541.864 365.214L516.247 363.523C524.598 375.704 537.237 384.389 552.133 387.434L541.977 365.214H541.864ZM568.609 259.756C559.694 260.432 551.118 262.914 543.444 266.974L568.609 278.817L592.646 262.914C585.198 260.32 577.073 259.192 568.609 259.756ZM568.384 296.412L541.3 318.632L550.892 350.101L584.747 348.409L595.355 315.136L568.271 296.412H568.384ZM595.919 360.59L583.844 385.517C598.966 380.554 611.944 370.064 620.408 356.642L595.919 360.59ZM617.022 279.607L612.282 307.917L631.241 323.933C631.354 322.467 631.354 321.001 631.354 319.534C631.354 303.969 625.937 290.096 616.909 279.607H617.022ZM617.022 279.607L612.282 307.917L631.241 323.933C631.354 322.467 631.354 321.001 631.354 319.534C631.354 303.969 625.937 290.096 616.909 279.607H617.022ZM595.919 360.59L583.844 385.517C598.966 380.554 611.944 370.064 620.408 356.642L595.919 360.59ZM568.384 296.412L541.3 318.632L550.892 350.101L584.747 348.409L595.355 315.136L568.271 296.412H568.384ZM568.609 259.756C559.694 260.432 551.118 262.914 543.444 266.974L568.609 278.817L592.646 262.914C585.198 260.32 577.073 259.192 568.609 259.756ZM541.864 365.214L516.247 363.523C524.598 375.704 537.237 384.389 552.133 387.434L541.977 365.214H541.864ZM519.633 287.389C510.943 299.119 505.639 313.557 505.639 328.783C505.639 330.25 505.639 331.603 505.752 333.069L524.372 314.459L519.633 287.389ZM519.633 287.389C510.943 299.119 505.639 313.557 505.639 328.783C505.639 330.25 505.639 331.603 505.752 333.069L524.372 314.459L519.633 287.389ZM541.864 365.214L516.247 363.523C524.598 375.704 537.237 384.389 552.133 387.434L541.977 365.214H541.864ZM568.609 259.756C559.694 260.432 551.118 262.914 543.444 266.974L568.609 278.817L592.646 262.914C585.198 260.32 577.073 259.192 568.609 259.756ZM568.384 296.412L541.3 318.632L550.892 350.101L584.747 348.409L595.355 315.136L568.271 296.412H568.384ZM595.919 360.59L583.844 385.517C598.966 380.554 611.944 370.064 620.408 356.642L595.919 360.59ZM617.022 279.607L612.282 307.917L631.241 323.933C631.354 322.467 631.354 321.001 631.354 319.534C631.354 303.969 625.937 290.096 616.909 279.607H617.022ZM617.022 279.607L612.282 307.917L631.241 323.933C631.354 322.467 631.354 321.001 631.354 319.534C631.354 303.969 625.937 290.096 616.909 279.607H617.022ZM595.919 360.59L583.844 385.517C598.966 380.554 611.944 370.064 620.408 356.642L595.919 360.59ZM568.384 296.412L541.3 318.632L550.892 350.101L584.747 348.409L595.355 315.136L568.271 296.412H568.384ZM568.609 259.756C559.694 260.432 551.118 262.914 543.444 266.974L568.609 278.817L592.646 262.914C585.198 260.32 577.073 259.192 568.609 259.756ZM541.864 365.214L516.247 363.523C524.598 375.704 537.237 384.389 552.133 387.434L541.977 365.214H541.864ZM519.633 287.389C510.943 299.119 505.639 313.557 505.639 328.783C505.639 330.25 505.639 331.603 505.752 333.069L524.372 314.459L519.633 287.389ZM519.633 287.389C510.943 299.119 505.639 313.557 505.639 328.783C505.639 330.25 505.639 331.603 505.752 333.069L524.372 314.459L519.633 287.389ZM541.864 365.214L516.247 363.523C524.598 375.704 537.237 384.389 552.133 387.434L541.977 365.214H541.864ZM568.609 259.756C559.694 260.432 551.118 262.914 543.444 266.974L568.609 278.817L592.646 262.914C585.198 260.32 577.073 259.192 568.609 259.756ZM568.384 296.412L541.3 318.632L550.892 350.101L584.747 348.409L595.355 315.136L568.271 296.412H568.384ZM595.919 360.59L583.844 385.517C598.966 380.554 611.944 370.064 620.408 356.642L595.919 360.59ZM617.022 279.607L612.282 307.917L631.241 323.933C631.354 322.467 631.354 321.001 631.354 319.534C631.354 303.969 625.937 290.096 616.909 279.607H617.022ZM617.022 279.607L612.282 307.917L631.241 323.933C631.354 322.467 631.354 321.001 631.354 319.534C631.354 303.969 625.937 290.096 616.909 279.607H617.022ZM595.919 360.59L583.844 385.517C598.966 380.554 611.944 370.064 620.408 356.642L595.919 360.59ZM568.384 296.412L541.3 318.632L550.892 350.101L584.747 348.409L595.355 315.136L568.271 296.412H568.384ZM568.609 259.756C559.694 260.432 551.118 262.914 543.444 266.974L568.609 278.817L592.646 262.914C585.198 260.32 577.073 259.192 568.609 259.756ZM541.864 365.214L516.247 363.523C524.598 375.704 537.237 384.389 552.133 387.434L541.977 365.214H541.864ZM519.633 287.389C510.943 299.119 505.639 313.557 505.639 328.783C505.639 330.25 505.639 331.603 505.752 333.069L524.372 314.459L519.633 287.389ZM485.213 481.84L463.433 483.419V589.103L485.213 587.524C501.238 586.396 508.912 578.726 508.912 561.695V504.285C508.912 487.253 501.238 480.712 485.213 481.952V481.84ZM519.633 287.389C510.943 299.119 505.639 313.557 505.639 328.783C505.639 330.25 505.639 331.603 505.752 333.069L524.372 314.459L519.633 287.389ZM541.864 365.214L516.247 363.523C524.598 375.704 537.237 384.389 552.133 387.434L541.977 365.214H541.864ZM568.609 259.756C559.694 260.432 551.118 262.914 543.444 266.974L568.609 278.817L592.646 262.914C585.198 260.32 577.073 259.192 568.609 259.756ZM568.384 296.412L541.3 318.632L550.892 350.101L584.747 348.409L595.355 315.136L568.271 296.412H568.384ZM595.919 360.59L583.844 385.517C598.966 380.554 611.944 370.064 620.408 356.642L595.919 360.59ZM608.333 470.448H607.768L591.631 546.243L624.583 543.874L608.333 470.561V470.448ZM617.022 279.607L612.282 307.917L631.241 323.933C631.354 322.467 631.354 321.001 631.354 319.534C631.354 303.969 625.937 290.096 616.909 279.607H617.022ZM617.022 279.607L612.282 307.917L631.241 323.933C631.354 322.467 631.354 321.001 631.354 319.534C631.354 303.969 625.937 290.096 616.909 279.607H617.022ZM583.844 385.517C598.966 380.554 611.944 370.064 620.408 356.642L595.919 360.59L583.844 385.517ZM584.86 348.522L595.468 315.248L568.384 296.525L541.3 318.745L550.892 350.213L584.747 348.522H584.86ZM592.646 262.914C585.198 260.32 577.073 259.192 568.609 259.756C559.694 260.432 551.118 262.914 543.444 266.974L568.609 278.817L592.646 262.914ZM516.247 363.635C524.598 375.817 537.237 384.502 552.133 387.547L541.977 365.327L516.36 363.635H516.247ZM519.633 287.389C510.943 299.119 505.639 313.557 505.639 328.783C505.639 330.25 505.639 331.603 505.752 333.069L524.372 314.459L519.633 287.389ZM608.333 470.448H607.768L591.631 546.243L624.583 543.874L608.333 470.561V470.448ZM485.213 481.84L463.433 483.419V589.103L485.213 587.524C501.238 586.396 508.912 578.726 508.912 561.695V504.285C508.912 487.253 501.238 480.712 485.213 481.952V481.84ZM74.4393 258.177L435.108 231.784V27.408L58.7532 54.9288V259.305L33.5876 261.109V465.485L404.413 438.303V642.678L809.431 613.014V408.639L864.841 404.578V200.202L74.4393 258.177ZM324.741 57.2974L408.25 51.2067V80.1938L357.016 83.9158V119.106L408.25 115.384V144.371L357.016 148.093V186.78L408.25 183.058V212.045L324.741 218.136V57.2974ZM199.139 66.5462L231.414 64.1776V128.355L276.328 125.084V60.9067L308.603 58.5381V219.264L276.328 221.633V154.071L231.414 157.342V224.904L199.139 227.272V66.5462ZM85.6115 74.7798L191.916 66.9973V97.3379L154.901 100.045V230.43L122.626 232.799V102.413L85.4986 105.12V74.7798H85.6115ZM542.315 559.214C542.315 593.502 525.275 612.112 485.213 615.045L431.158 618.992V458.266L485.213 454.319C525.162 451.386 542.315 467.515 542.315 501.803V559.214ZM637.899 603.878L631.015 572.523L585.424 575.907L578.54 608.277L544.234 610.759L582.603 447.213L633.724 443.491L672.093 601.397L637.899 603.878ZM733.822 540.265V596.885L698.838 599.48V542.859L655.73 441.912L690.487 439.318L716.217 513.308H716.556L742.286 435.596L777.043 433.001L733.935 540.265H733.822ZM658.099 237.31L740.706 231.22V260.207L690.375 263.929V303.744L740.706 300.022V326.415L690.375 330.137V395.668L658.099 398.036V237.31ZM568.609 243.852C611.944 240.694 647.153 274.193 647.153 318.519C647.153 362.846 611.944 401.42 568.609 404.691C525.275 407.849 490.179 374.35 490.179 330.024C490.179 285.697 525.388 247.123 568.609 243.965V243.852ZM89.3355 439.656L57.0604 442.025V281.299L89.3355 278.93V439.656ZM132.444 436.498L89.6741 357.883L131.993 275.885L167.653 273.29L124.996 355.402L168.105 434.016L132.444 436.611V436.498ZM208.054 430.971L175.779 433.34V272.614L208.054 270.245V430.971ZM337.38 323.933L303.186 326.415V318.294C303.186 298.443 295.512 290.209 279.601 291.45C263.689 292.578 255.902 301.939 255.902 321.79V372.433C255.902 392.284 263.689 400.518 279.601 399.277C295.512 398.149 303.186 388.788 303.186 368.937V360.703L337.38 358.222V365.327C337.38 403.338 316.615 425.332 279.601 428.039C242.586 430.746 221.709 411.797 221.709 373.787V325.4C221.709 287.389 242.586 265.395 279.601 262.688C316.615 259.981 337.38 278.93 337.38 316.94V323.933ZM383.197 418.113L350.922 420.482V259.756L383.197 257.387V418.113ZM383.535 336.34L425.854 254.342L461.515 251.748L418.857 333.859L461.966 412.474L426.306 415.068L383.535 336.453V336.34ZM834.484 253.327L784.153 257.049V296.864L834.484 293.142V319.534L784.153 323.257V388.788L751.878 391.156V230.43L834.484 224.34V253.327ZM631.467 319.534C631.467 303.969 626.05 290.096 617.022 279.607L612.282 307.917L631.241 323.933C631.354 322.467 631.354 321.001 631.354 319.534H631.467ZM607.881 470.561L591.744 546.243L624.696 543.874L608.445 470.561H607.881ZM620.52 356.642L596.032 360.59L583.957 385.517C599.079 380.554 612.057 370.064 620.52 356.642ZM584.86 348.522L595.468 315.248L568.384 296.525L541.3 318.745L550.892 350.213L584.747 348.522H584.86ZM592.646 262.914C585.198 260.32 577.073 259.192 568.609 259.756C559.694 260.432 551.118 262.914 543.444 266.974L568.609 278.817L592.646 262.914ZM516.247 363.635C524.598 375.817 537.237 384.502 552.133 387.547L541.977 365.327L516.36 363.635H516.247ZM519.633 287.389C510.943 299.119 505.639 313.557 505.639 328.783C505.639 330.25 505.639 331.603 505.752 333.069L524.372 314.459L519.633 287.389ZM485.213 481.84L463.433 483.419V589.103L485.213 587.524C501.238 586.396 508.912 578.726 508.912 561.695V504.285C508.912 487.253 501.238 480.712 485.213 481.952V481.84ZM485.213 481.84L463.433 483.419V589.103L485.213 587.524C501.238 586.396 508.912 578.726 508.912 561.695V504.285C508.912 487.253 501.238 480.712 485.213 481.952V481.84ZM519.633 287.389C510.943 299.119 505.639 313.557 505.639 328.783C505.639 330.25 505.639 331.603 505.752 333.069L524.372 314.459L519.633 287.389ZM541.864 365.214L516.247 363.523C524.598 375.704 537.237 384.389 552.133 387.434L541.977 365.214H541.864ZM568.609 259.756C559.694 260.432 551.118 262.914 543.444 266.974L568.609 278.817L592.646 262.914C585.198 260.32 577.073 259.192 568.609 259.756ZM568.384 296.412L541.3 318.632L550.892 350.101L584.747 348.409L595.355 315.136L568.271 296.412H568.384ZM595.919 360.59L583.844 385.517C598.966 380.554 611.944 370.064 620.408 356.642L595.919 360.59ZM617.022 279.607L612.282 307.917L631.241 323.933C631.354 322.467 631.354 321.001 631.354 319.534C631.354 303.969 625.937 290.096 616.909 279.607H617.022ZM617.022 279.607L612.282 307.917L631.241 323.933C631.354 322.467 631.354 321.001 631.354 319.534C631.354 303.969 625.937 290.096 616.909 279.607H617.022ZM595.919 360.59L583.844 385.517C598.966 380.554 611.944 370.064 620.408 356.642L595.919 360.59ZM568.384 296.412L541.3 318.632L550.892 350.101L584.747 348.409L595.355 315.136L568.271 296.412H568.384ZM568.609 259.756C559.694 260.432 551.118 262.914 543.444 266.974L568.609 278.817L592.646 262.914C585.198 260.32 577.073 259.192 568.609 259.756ZM541.864 365.214L516.247 363.523C524.598 375.704 537.237 384.389 552.133 387.434L541.977 365.214H541.864ZM519.633 287.389C510.943 299.119 505.639 313.557 505.639 328.783C505.639 330.25 505.639 331.603 505.752 333.069L524.372 314.459L519.633 287.389ZM485.213 481.84L463.433 483.419V589.103L485.213 587.524C501.238 586.396 508.912 578.726 508.912 561.695V504.285C508.912 487.253 501.238 480.712 485.213 481.952V481.84ZM519.633 287.389C510.943 299.119 505.639 313.557 505.639 328.783C505.639 330.25 505.639 331.603 505.752 333.069L524.372 314.459L519.633 287.389ZM541.864 365.214L516.247 363.523C524.598 375.704 537.237 384.389 552.133 387.434L541.977 365.214H541.864ZM568.609 259.756C559.694 260.432 551.118 262.914 543.444 266.974L568.609 278.817L592.646 262.914C585.198 260.32 577.073 259.192 568.609 259.756ZM568.384 296.412L541.3 318.632L550.892 350.101L584.747 348.409L595.355 315.136L568.271 296.412H568.384ZM595.919 360.59L583.844 385.517C598.966 380.554 611.944 370.064 620.408 356.642L595.919 360.59ZM617.022 279.607L612.282 307.917L631.241 323.933C631.354 322.467 631.354 321.001 631.354 319.534C631.354 303.969 625.937 290.096 616.909 279.607H617.022ZM617.022 279.607L612.282 307.917L631.241 323.933C631.354 322.467 631.354 321.001 631.354 319.534C631.354 303.969 625.937 290.096 616.909 279.607H617.022ZM595.919 360.59L583.844 385.517C598.966 380.554 611.944 370.064 620.408 356.642L595.919 360.59ZM568.384 296.412L541.3 318.632L550.892 350.101L584.747 348.409L595.355 315.136L568.271 296.412H568.384ZM568.609 259.756C559.694 260.432 551.118 262.914 543.444 266.974L568.609 278.817L592.646 262.914C585.198 260.32 577.073 259.192 568.609 259.756ZM541.864 365.214L516.247 363.523C524.598 375.704 537.237 384.389 552.133 387.434L541.977 365.214H541.864ZM519.633 287.389C510.943 299.119 505.639 313.557 505.639 328.783C505.639 330.25 505.639 331.603 505.752 333.069L524.372 314.459L519.633 287.389ZM519.633 287.389C510.943 299.119 505.639 313.557 505.639 328.783C505.639 330.25 505.639 331.603 505.752 333.069L524.372 314.459L519.633 287.389ZM541.864 365.214L516.247 363.523C524.598 375.704 537.237 384.389 552.133 387.434L541.977 365.214H541.864ZM568.609 259.756C559.694 260.432 551.118 262.914 543.444 266.974L568.609 278.817L592.646 262.914C585.198 260.32 577.073 259.192 568.609 259.756ZM568.384 296.412L541.3 318.632L550.892 350.101L584.747 348.409L595.355 315.136L568.271 296.412H568.384ZM595.919 360.59L583.844 385.517C598.966 380.554 611.944 370.064 620.408 356.642L595.919 360.59ZM617.022 279.607L612.282 307.917L631.241 323.933C631.354 322.467 631.354 321.001 631.354 319.534C631.354 303.969 625.937 290.096 616.909 279.607H617.022ZM617.022 279.607L612.282 307.917L631.241 323.933C631.354 322.467 631.354 321.001 631.354 319.534C631.354 303.969 625.937 290.096 616.909 279.607H617.022ZM595.919 360.59L583.844 385.517C598.966 380.554 611.944 370.064 620.408 356.642L595.919 360.59ZM568.384 296.412L541.3 318.632L550.892 350.101L584.747 348.409L595.355 315.136L568.271 296.412H568.384ZM568.609 259.756C559.694 260.432 551.118 262.914 543.444 266.974L568.609 278.817L592.646 262.914C585.198 260.32 577.073 259.192 568.609 259.756ZM541.864 365.214L516.247 363.523C524.598 375.704 537.237 384.389 552.133 387.434L541.977 365.214H541.864ZM519.633 287.389C510.943 299.119 505.639 313.557 505.639 328.783C505.639 330.25 505.639 331.603 505.752 333.069L524.372 314.459L519.633 287.389ZM519.633 287.389C510.943 299.119 505.639 313.557 505.639 328.783C505.639 330.25 505.639 331.603 505.752 333.069L524.372 314.459L519.633 287.389ZM541.864 365.214L516.247 363.523C524.598 375.704 537.237 384.389 552.133 387.434L541.977 365.214H541.864ZM568.609 259.756C559.694 260.432 551.118 262.914 543.444 266.974L568.609 278.817L592.646 262.914C585.198 260.32 577.073 259.192 568.609 259.756ZM568.384 296.412L541.3 318.632L550.892 350.101L584.747 348.409L595.355 315.136L568.271 296.412H568.384ZM595.919 360.59L583.844 385.517C598.966 380.554 611.944 370.064 620.408 356.642L595.919 360.59ZM617.022 279.607L612.282 307.917L631.241 323.933C631.354 322.467 631.354 321.001 631.354 319.534C631.354 303.969 625.937 290.096 616.909 279.607H617.022ZM617.022 279.607L612.282 307.917L631.241 323.933C631.354 322.467 631.354 321.001 631.354 319.534C631.354 303.969 625.937 290.096 616.909 279.607H617.022ZM595.919 360.59L583.844 385.517C598.966 380.554 611.944 370.064 620.408 356.642L595.919 360.59ZM568.384 296.412L541.3 318.632L550.892 350.101L584.747 348.409L595.355 315.136L568.271 296.412H568.384ZM568.609 259.756C559.694 260.432 551.118 262.914 543.444 266.974L568.609 278.817L592.646 262.914C585.198 260.32 577.073 259.192 568.609 259.756ZM541.864 365.214L516.247 363.523C524.598 375.704 537.237 384.389 552.133 387.434L541.977 365.214H541.864ZM519.633 287.389C510.943 299.119 505.639 313.557 505.639 328.783C505.639 330.25 505.639 331.603 505.752 333.069L524.372 314.459L519.633 287.389ZM519.633 287.389C510.943 299.119 505.639 313.557 505.639 328.783C505.639 330.25 505.639 331.603 505.752 333.069L524.372 314.459L519.633 287.389ZM541.864 365.214L516.247 363.523C524.598 375.704 537.237 384.389 552.133 387.434L541.977 365.214H541.864ZM568.609 259.756C559.694 260.432 551.118 262.914 543.444 266.974L568.609 278.817L592.646 262.914C585.198 260.32 577.073 259.192 568.609 259.756ZM568.384 296.412L541.3 318.632L550.892 350.101L584.747 348.409L595.355 315.136L568.271 296.412H568.384ZM595.919 360.59L583.844 385.517C598.966 380.554 611.944 370.064 620.408 356.642L595.919 360.59ZM617.022 279.607L612.282 307.917L631.241 323.933C631.354 322.467 631.354 321.001 631.354 319.534C631.354 303.969 625.937 290.096 616.909 279.607H617.022ZM617.022 279.607L612.282 307.917L631.241 323.933C631.354 322.467 631.354 321.001 631.354 319.534C631.354 303.969 625.937 290.096 616.909 279.607H617.022ZM595.919 360.59L583.844 385.517C598.966 380.554 611.944 370.064 620.408 356.642L595.919 360.59ZM568.384 296.412L541.3 318.632L550.892 350.101L584.747 348.409L595.355 315.136L568.271 296.412H568.384ZM568.609 259.756C559.694 260.432 551.118 262.914 543.444 266.974L568.609 278.817L592.646 262.914C585.198 260.32 577.073 259.192 568.609 259.756ZM541.864 365.214L516.247 363.523C524.598 375.704 537.237 384.389 552.133 387.434L541.977 365.214H541.864ZM519.633 287.389C510.943 299.119 505.639 313.557 505.639 328.783C505.639 330.25 505.639 331.603 505.752 333.069L524.372 314.459L519.633 287.389ZM519.633 287.389C510.943 299.119 505.639 313.557 505.639 328.783C505.639 330.25 505.639 331.603 505.752 333.069L524.372 314.459L519.633 287.389ZM541.864 365.214L516.247 363.523C524.598 375.704 537.237 384.389 552.133 387.434L541.977 365.214H541.864ZM568.609 259.756C559.694 260.432 551.118 262.914 543.444 266.974L568.609 278.817L592.646 262.914C585.198 260.32 577.073 259.192 568.609 259.756ZM568.384 296.412L541.3 318.632L550.892 350.101L584.747 348.409L595.355 315.136L568.271 296.412H568.384ZM595.919 360.59L583.844 385.517C598.966 380.554 611.944 370.064 620.408 356.642L595.919 360.59ZM617.022 279.607L612.282 307.917L631.241 323.933C631.354 322.467 631.354 321.001 631.354 319.534C631.354 303.969 625.937 290.096 616.909 279.607H617.022ZM617.022 279.607L612.282 307.917L631.241 323.933C631.354 322.467 631.354 321.001 631.354 319.534C631.354 303.969 625.937 290.096 616.909 279.607H617.022ZM595.919 360.59L583.844 385.517C598.966 380.554 611.944 370.064 620.408 356.642L595.919 360.59ZM568.384 296.412L541.3 318.632L550.892 350.101L584.747 348.409L595.355 315.136L568.271 296.412H568.384ZM568.609 259.756C559.694 260.432 551.118 262.914 543.444 266.974L568.609 278.817L592.646 262.914C585.198 260.32 577.073 259.192 568.609 259.756ZM541.864 365.214L516.247 363.523C524.598 375.704 537.237 384.389 552.133 387.434L541.977 365.214H541.864ZM519.633 287.389C510.943 299.119 505.639 313.557 505.639 328.783C505.639 330.25 505.639 331.603 505.752 333.069L524.372 314.459L519.633 287.389Z" fill="black"/>
<path d="M58.7532 54.9288V259.304L74.4393 258.177L435.108 231.784V27.408L58.7532 54.9288ZM191.916 97.4506L154.901 100.158V230.543L122.626 232.912V102.526L85.4986 105.233V74.8926L191.803 67.1101V97.4506H191.916ZM308.603 219.264L276.328 221.633V154.071L231.414 157.342V224.904L199.139 227.272V66.5461L231.414 64.1775V128.355L276.328 125.084V60.9066L308.603 58.538V219.264ZM408.25 80.1938L357.016 83.9158V119.106L408.25 115.384V144.371L357.016 148.093V186.78L408.25 183.058V212.045L324.741 218.136V57.2973L408.25 51.2067V80.1938Z" fill="white"/>
<path d="M519.633 287.389C510.943 299.119 505.639 313.557 505.639 328.783C505.639 330.249 505.639 331.603 505.752 333.069L524.372 314.459L519.633 287.389ZM541.864 365.214L516.247 363.523C524.598 375.704 537.237 384.389 552.133 387.434L541.977 365.214H541.864ZM568.609 259.756C559.694 260.432 551.118 262.914 543.444 266.974L568.609 278.817L592.646 262.914C585.198 260.32 577.073 259.192 568.609 259.756ZM568.384 296.412L541.3 318.632L550.892 350.101L584.747 348.409L595.355 315.136L568.271 296.412H568.384ZM595.919 360.59L583.844 385.517C598.966 380.554 611.944 370.064 620.408 356.642L595.919 360.59ZM617.022 279.607L612.282 307.917L631.241 323.933C631.354 322.467 631.354 321.001 631.354 319.534C631.354 303.969 625.937 290.096 616.909 279.607H617.022ZM617.022 279.607L612.282 307.917L631.241 323.933C631.354 322.467 631.354 321.001 631.354 319.534C631.354 303.969 625.937 290.096 616.909 279.607H617.022ZM595.919 360.59L583.844 385.517C598.966 380.554 611.944 370.064 620.408 356.642L595.919 360.59ZM568.384 296.412L541.3 318.632L550.892 350.101L584.747 348.409L595.355 315.136L568.271 296.412H568.384ZM568.609 259.756C559.694 260.432 551.118 262.914 543.444 266.974L568.609 278.817L592.646 262.914C585.198 260.32 577.073 259.192 568.609 259.756ZM541.864 365.214L516.247 363.523C524.598 375.704 537.237 384.389 552.133 387.434L541.977 365.214H541.864ZM519.633 287.389C510.943 299.119 505.639 313.557 505.639 328.783C505.639 330.249 505.639 331.603 505.752 333.069L524.372 314.459L519.633 287.389ZM519.633 287.389C510.943 299.119 505.639 313.557 505.639 328.783C505.639 330.249 505.639 331.603 505.752 333.069L524.372 314.459L519.633 287.389ZM541.864 365.214L516.247 363.523C524.598 375.704 537.237 384.389 552.133 387.434L541.977 365.214H541.864ZM568.609 259.756C559.694 260.432 551.118 262.914 543.444 266.974L568.609 278.817L592.646 262.914C585.198 260.32 577.073 259.192 568.609 259.756ZM568.384 296.412L541.3 318.632L550.892 350.101L584.747 348.409L595.355 315.136L568.271 296.412H568.384ZM595.919 360.59L583.844 385.517C598.966 380.554 611.944 370.064 620.408 356.642L595.919 360.59ZM617.022 279.607L612.282 307.917L631.241 323.933C631.354 322.467 631.354 321.001 631.354 319.534C631.354 303.969 625.937 290.096 616.909 279.607H617.022ZM617.022 279.607L612.282 307.917L631.241 323.933C631.354 322.467 631.354 321.001 631.354 319.534C631.354 303.969 625.937 290.096 616.909 279.607H617.022ZM595.919 360.59L583.844 385.517C598.966 380.554 611.944 370.064 620.408 356.642L595.919 360.59ZM568.384 296.412L541.3 318.632L550.892 350.101L584.747 348.409L595.355 315.136L568.271 296.412H568.384ZM568.609 259.756C559.694 260.432 551.118 262.914 543.444 266.974L568.609 278.817L592.646 262.914C585.198 260.32 577.073 259.192 568.609 259.756ZM541.864 365.214L516.247 363.523C524.598 375.704 537.237 384.389 552.133 387.434L541.977 365.214H541.864ZM519.633 287.389C510.943 299.119 505.639 313.557 505.639 328.783C505.639 330.249 505.639 331.603 505.752 333.069L524.372 314.459L519.633 287.389ZM519.633 287.389C510.943 299.119 505.639 313.557 505.639 328.783C505.639 330.249 505.639 331.603 505.752 333.069L524.372 314.459L519.633 287.389ZM541.864 365.214L516.247 363.523C524.598 375.704 537.237 384.389 552.133 387.434L541.977 365.214H541.864ZM568.609 259.756C559.694 260.432 551.118 262.914 543.444 266.974L568.609 278.817L592.646 262.914C585.198 260.32 577.073 259.192 568.609 259.756ZM568.384 296.412L541.3 318.632L550.892 350.101L584.747 348.409L595.355 315.136L568.271 296.412H568.384ZM595.919 360.59L583.844 385.517C598.966 380.554 611.944 370.064 620.408 356.642L595.919 360.59ZM617.022 279.607L612.282 307.917L631.241 323.933C631.354 322.467 631.354 321.001 631.354 319.534C631.354 303.969 625.937 290.096 616.909 279.607H617.022ZM617.022 279.607L612.282 307.917L631.241 323.933C631.354 322.467 631.354 321.001 631.354 319.534C631.354 303.969 625.937 290.096 616.909 279.607H617.022ZM595.919 360.59L583.844 385.517C598.966 380.554 611.944 370.064 620.408 356.642L595.919 360.59ZM568.384 296.412L541.3 318.632L550.892 350.101L584.747 348.409L595.355 315.136L568.271 296.412H568.384ZM568.609 259.756C559.694 260.432 551.118 262.914 543.444 266.974L568.609 278.817L592.646 262.914C585.198 260.32 577.073 259.192 568.609 259.756ZM541.864 365.214L516.247 363.523C524.598 375.704 537.237 384.389 552.133 387.434L541.977 365.214H541.864ZM519.633 287.389C510.943 299.119 505.639 313.557 505.639 328.783C505.639 330.249 505.639 331.603 505.752 333.069L524.372 314.459L519.633 287.389ZM519.633 287.389C510.943 299.119 505.639 313.557 505.639 328.783C505.639 330.249 505.639 331.603 505.752 333.069L524.372 314.459L519.633 287.389ZM541.864 365.214L516.247 363.523C524.598 375.704 537.237 384.389 552.133 387.434L541.977 365.214H541.864ZM568.609 259.756C559.694 260.432 551.118 262.914 543.444 266.974L568.609 278.817L592.646 262.914C585.198 260.32 577.073 259.192 568.609 259.756ZM568.384 296.412L541.3 318.632L550.892 350.101L584.747 348.409L595.355 315.136L568.271 296.412H568.384ZM595.919 360.59L583.844 385.517C598.966 380.554 611.944 370.064 620.408 356.642L595.919 360.59ZM617.022 279.607L612.282 307.917L631.241 323.933C631.354 322.467 631.354 321.001 631.354 319.534C631.354 303.969 625.937 290.096 616.909 279.607H617.022ZM617.022 279.607L612.282 307.917L631.241 323.933C631.354 322.467 631.354 321.001 631.354 319.534C631.354 303.969 625.937 290.096 616.909 279.607H617.022ZM595.919 360.59L583.844 385.517C598.966 380.554 611.944 370.064 620.408 356.642L595.919 360.59ZM568.384 296.412L541.3 318.632L550.892 350.101L584.747 348.409L595.355 315.136L568.271 296.412H568.384ZM568.609 259.756C559.694 260.432 551.118 262.914 543.444 266.974L568.609 278.817L592.646 262.914C585.198 260.32 577.073 259.192 568.609 259.756ZM541.864 365.214L516.247 363.523C524.598 375.704 537.237 384.389 552.133 387.434L541.977 365.214H541.864ZM519.633 287.389C510.943 299.119 505.639 313.557 505.639 328.783C505.639 330.249 505.639 331.603 505.752 333.069L524.372 314.459L519.633 287.389ZM519.633 287.389C510.943 299.119 505.639 313.557 505.639 328.783C505.639 330.249 505.639 331.603 505.752 333.069L524.372 314.459L519.633 287.389ZM541.864 365.214L516.247 363.523C524.598 375.704 537.237 384.389 552.133 387.434L541.977 365.214H541.864ZM568.609 259.756C559.694 260.432 551.118 262.914 543.444 266.974L568.609 278.817L592.646 262.914C585.198 260.32 577.073 259.192 568.609 259.756ZM568.384 296.412L541.3 318.632L550.892 350.101L584.747 348.409L595.355 315.136L568.271 296.412H568.384ZM595.919 360.59L583.844 385.517C598.966 380.554 611.944 370.064 620.408 356.642L595.919 360.59ZM617.022 279.607L612.282 307.917L631.241 323.933C631.354 322.467 631.354 321.001 631.354 319.534C631.354 303.969 625.937 290.096 616.909 279.607H617.022ZM617.022 279.607L612.282 307.917L631.241 323.933C631.354 322.467 631.354 321.001 631.354 319.534C631.354 303.969 625.937 290.096 616.909 279.607H617.022ZM595.919 360.59L583.844 385.517C598.966 380.554 611.944 370.064 620.408 356.642L595.919 360.59ZM568.384 296.412L541.3 318.632L550.892 350.101L584.747 348.409L595.355 315.136L568.271 296.412H568.384ZM568.609 259.756C559.694 260.432 551.118 262.914 543.444 266.974L568.609 278.817L592.646 262.914C585.198 260.32 577.073 259.192 568.609 259.756ZM541.864 365.214L516.247 363.523C524.598 375.704 537.237 384.389 552.133 387.434L541.977 365.214H541.864ZM519.633 287.389C510.943 299.119 505.639 313.557 505.639 328.783C505.639 330.249 505.639 331.603 505.752 333.069L524.372 314.459L519.633 287.389ZM519.633 287.389C510.943 299.119 505.639 313.557 505.639 328.783C505.639 330.249 505.639 331.603 505.752 333.069L524.372 314.459L519.633 287.389ZM541.864 365.214L516.247 363.523C524.598 375.704 537.237 384.389 552.133 387.434L541.977 365.214H541.864ZM568.609 259.756C559.694 260.432 551.118 262.914 543.444 266.974L568.609 278.817L592.646 262.914C585.198 260.32 577.073 259.192 568.609 259.756ZM568.384 296.412L541.3 318.632L550.892 350.101L584.747 348.409L595.355 315.136L568.271 296.412H568.384ZM595.919 360.59L583.844 385.517C598.966 380.554 611.944 370.064 620.408 356.642L595.919 360.59ZM617.022 279.607L612.282 307.917L631.241 323.933C631.354 322.467 631.354 321.001 631.354 319.534C631.354 303.969 625.937 290.096 616.909 279.607H617.022ZM617.022 279.607L612.282 307.917L631.241 323.933C631.354 322.467 631.354 321.001 631.354 319.534C631.354 303.969 625.937 290.096 616.909 279.607H617.022ZM583.844 385.517C598.966 380.554 611.944 370.064 620.408 356.642L595.919 360.59L583.844 385.517ZM584.86 348.521L595.468 315.248L568.384 296.525L541.3 318.745L550.892 350.213L584.747 348.521H584.86ZM592.646 262.914C585.198 260.32 577.073 259.192 568.609 259.756C559.694 260.432 551.118 262.914 543.444 266.974L568.609 278.817L592.646 262.914ZM516.247 363.635C524.598 375.817 537.237 384.502 552.133 387.547L541.977 365.327L516.36 363.635H516.247ZM519.633 287.389C510.943 299.119 505.639 313.557 505.639 328.783C505.639 330.249 505.639 331.603 505.752 333.069L524.372 314.459L519.633 287.389ZM74.4393 258.177L58.7532 259.304L33.5876 261.109V465.485L404.413 438.302L809.431 408.639L864.841 404.578V200.202L74.4393 258.177ZM89.3355 439.656L57.0604 442.024V281.299L89.3355 278.93V439.656ZM132.444 436.498L89.6741 357.883L131.993 275.885L167.653 273.29L124.996 355.402L168.105 434.016L132.444 436.611V436.498ZM208.054 430.971L175.779 433.34V272.614L208.054 270.245V430.971ZM337.38 323.933L303.186 326.415V318.294C303.186 298.443 295.512 290.209 279.601 291.45C263.689 292.578 255.902 301.939 255.902 321.79V372.433C255.902 392.284 263.689 400.518 279.601 399.277C295.512 398.149 303.186 388.788 303.186 368.936V360.703L337.38 358.221V365.327C337.38 403.337 316.615 425.332 279.601 428.039C242.586 430.745 221.709 411.797 221.709 373.786V325.399C221.709 287.389 242.586 265.395 279.601 262.688C316.615 259.981 337.38 278.93 337.38 316.94V323.933ZM383.197 418.113L350.922 420.482V259.756L383.197 257.387V418.113ZM426.306 414.955L383.535 336.34L425.854 254.342L461.515 251.747L418.857 333.859L461.966 412.473L426.306 415.068V414.955ZM568.609 404.578C525.275 407.736 490.179 374.238 490.179 329.911C490.179 285.585 525.388 247.01 568.609 243.852C611.944 240.694 647.153 274.193 647.153 318.519C647.153 362.846 611.944 401.42 568.609 404.691V404.578ZM740.593 260.207L690.262 263.929V303.744L740.593 300.022V326.415L690.262 330.137V395.668L657.987 398.036V237.31L740.593 231.22V260.207ZM834.484 253.327L784.153 257.049V296.864L834.484 293.141V319.534L784.153 323.256V388.788L751.878 391.156V230.43L834.484 224.339V253.327ZM612.282 307.917L631.241 323.933C631.354 322.467 631.354 321.001 631.354 319.534C631.354 303.969 625.937 290.096 616.909 279.607L612.169 307.917H612.282ZM583.844 385.517C598.966 380.554 611.944 370.064 620.408 356.642L595.919 360.59L583.844 385.517ZM595.468 315.248L568.384 296.525L541.3 318.745L550.892 350.213L584.747 348.521L595.355 315.248H595.468ZM592.646 262.914C585.198 260.32 577.073 259.192 568.609 259.756C559.694 260.432 551.118 262.914 543.444 266.974L568.609 278.817L592.646 262.914ZM516.247 363.635C524.598 375.817 537.237 384.502 552.133 387.547L541.977 365.327L516.36 363.635H516.247ZM519.633 287.389C510.943 299.119 505.639 313.557 505.639 328.783C505.639 330.249 505.639 331.603 505.752 333.069L524.372 314.459L519.633 287.389ZM519.633 287.389C510.943 299.119 505.639 313.557 505.639 328.783C505.639 330.249 505.639 331.603 505.752 333.069L524.372 314.459L519.633 287.389ZM541.864 365.214L516.247 363.523C524.598 375.704 537.237 384.389 552.133 387.434L541.977 365.214H541.864ZM568.609 259.756C559.694 260.432 551.118 262.914 543.444 266.974L568.609 278.817L592.646 262.914C585.198 260.32 577.073 259.192 568.609 259.756ZM568.384 296.412L541.3 318.632L550.892 350.101L584.747 348.409L595.355 315.136L568.271 296.412H568.384ZM595.919 360.59L583.844 385.517C598.966 380.554 611.944 370.064 620.408 356.642L595.919 360.59ZM617.022 279.607L612.282 307.917L631.241 323.933C631.354 322.467 631.354 321.001 631.354 319.534C631.354 303.969 625.937 290.096 616.909 279.607H617.022ZM617.022 279.607L612.282 307.917L631.241 323.933C631.354 322.467 631.354 321.001 631.354 319.534C631.354 303.969 625.937 290.096 616.909 279.607H617.022ZM595.919 360.59L583.844 385.517C598.966 380.554 611.944 370.064 620.408 356.642L595.919 360.59ZM568.384 296.412L541.3 318.632L550.892 350.101L584.747 348.409L595.355 315.136L568.271 296.412H568.384ZM568.609 259.756C559.694 260.432 551.118 262.914 543.444 266.974L568.609 278.817L592.646 262.914C585.198 260.32 577.073 259.192 568.609 259.756ZM541.864 365.214L516.247 363.523C524.598 375.704 537.237 384.389 552.133 387.434L541.977 365.214H541.864ZM519.633 287.389C510.943 299.119 505.639 313.557 505.639 328.783C505.639 330.249 505.639 331.603 505.752 333.069L524.372 314.459L519.633 287.389ZM519.633 287.389C510.943 299.119 505.639 313.557 505.639 328.783C505.639 330.249 505.639 331.603 505.752 333.069L524.372 314.459L519.633 287.389ZM541.864 365.214L516.247 363.523C524.598 375.704 537.237 384.389 552.133 387.434L541.977 365.214H541.864ZM568.609 259.756C559.694 260.432 551.118 262.914 543.444 266.974L568.609 278.817L592.646 262.914C585.198 260.32 577.073 259.192 568.609 259.756ZM568.384 296.412L541.3 318.632L550.892 350.101L584.747 348.409L595.355 315.136L568.271 296.412H568.384ZM595.919 360.59L583.844 385.517C598.966 380.554 611.944 370.064 620.408 356.642L595.919 360.59ZM617.022 279.607L612.282 307.917L631.241 323.933C631.354 322.467 631.354 321.001 631.354 319.534C631.354 303.969 625.937 290.096 616.909 279.607H617.022ZM617.022 279.607L612.282 307.917L631.241 323.933C631.354 322.467 631.354 321.001 631.354 319.534C631.354 303.969 625.937 290.096 616.909 279.607H617.022ZM595.919 360.59L583.844 385.517C598.966 380.554 611.944 370.064 620.408 356.642L595.919 360.59ZM568.384 296.412L541.3 318.632L550.892 350.101L584.747 348.409L595.355 315.136L568.271 296.412H568.384ZM568.609 259.756C559.694 260.432 551.118 262.914 543.444 266.974L568.609 278.817L592.646 262.914C585.198 260.32 577.073 259.192 568.609 259.756ZM541.864 365.214L516.247 363.523C524.598 375.704 537.237 384.389 552.133 387.434L541.977 365.214H541.864ZM519.633 287.389C510.943 299.119 505.639 313.557 505.639 328.783C505.639 330.249 505.639 331.603 505.752 333.069L524.372 314.459L519.633 287.389ZM519.633 287.389C510.943 299.119 505.639 313.557 505.639 328.783C505.639 330.249 505.639 331.603 505.752 333.069L524.372 314.459L519.633 287.389ZM541.864 365.214L516.247 363.523C524.598 375.704 537.237 384.389 552.133 387.434L541.977 365.214H541.864ZM568.609 259.756C559.694 260.432 551.118 262.914 543.444 266.974L568.609 278.817L592.646 262.914C585.198 260.32 577.073 259.192 568.609 259.756ZM568.384 296.412L541.3 318.632L550.892 350.101L584.747 348.409L595.355 315.136L568.271 296.412H568.384ZM595.919 360.59L583.844 385.517C598.966 380.554 611.944 370.064 620.408 356.642L595.919 360.59ZM617.022 279.607L612.282 307.917L631.241 323.933C631.354 322.467 631.354 321.001 631.354 319.534C631.354 303.969 625.937 290.096 616.909 279.607H617.022ZM617.022 279.607L612.282 307.917L631.241 323.933C631.354 322.467 631.354 321.001 631.354 319.534C631.354 303.969 625.937 290.096 616.909 279.607H617.022ZM595.919 360.59L583.844 385.517C598.966 380.554 611.944 370.064 620.408 356.642L595.919 360.59ZM568.384 296.412L541.3 318.632L550.892 350.101L584.747 348.409L595.355 315.136L568.271 296.412H568.384ZM568.609 259.756C559.694 260.432 551.118 262.914 543.444 266.974L568.609 278.817L592.646 262.914C585.198 260.32 577.073 259.192 568.609 259.756ZM541.864 365.214L516.247 363.523C524.598 375.704 537.237 384.389 552.133 387.434L541.977 365.214H541.864ZM519.633 287.389C510.943 299.119 505.639 313.557 505.639 328.783C505.639 330.249 505.639 331.603 505.752 333.069L524.372 314.459L519.633 287.389ZM519.633 287.389C510.943 299.119 505.639 313.557 505.639 328.783C505.639 330.249 505.639 331.603 505.752 333.069L524.372 314.459L519.633 287.389ZM541.864 365.214L516.247 363.523C524.598 375.704 537.237 384.389 552.133 387.434L541.977 365.214H541.864ZM568.609 259.756C559.694 260.432 551.118 262.914 543.444 266.974L568.609 278.817L592.646 262.914C585.198 260.32 577.073 259.192 568.609 259.756ZM568.384 296.412L541.3 318.632L550.892 350.101L584.747 348.409L595.355 315.136L568.271 296.412H568.384ZM595.919 360.59L583.844 385.517C598.966 380.554 611.944 370.064 620.408 356.642L595.919 360.59ZM617.022 279.607L612.282 307.917L631.241 323.933C631.354 322.467 631.354 321.001 631.354 319.534C631.354 303.969 625.937 290.096 616.909 279.607H617.022ZM617.022 279.607L612.282 307.917L631.241 323.933C631.354 322.467 631.354 321.001 631.354 319.534C631.354 303.969 625.937 290.096 616.909 279.607H617.022ZM595.919 360.59L583.844 385.517C598.966 380.554 611.944 370.064 620.408 356.642L595.919 360.59ZM568.384 296.412L541.3 318.632L550.892 350.101L584.747 348.409L595.355 315.136L568.271 296.412H568.384ZM568.609 259.756C559.694 260.432 551.118 262.914 543.444 266.974L568.609 278.817L592.646 262.914C585.198 260.32 577.073 259.192 568.609 259.756ZM541.864 365.214L516.247 363.523C524.598 375.704 537.237 384.389 552.133 387.434L541.977 365.214H541.864ZM519.633 287.389C510.943 299.119 505.639 313.557 505.639 328.783C505.639 330.249 505.639 331.603 505.752 333.069L524.372 314.459L519.633 287.389ZM519.633 287.389C510.943 299.119 505.639 313.557 505.639 328.783C505.639 330.249 505.639 331.603 505.752 333.069L524.372 314.459L519.633 287.389ZM541.864 365.214L516.247 363.523C524.598 375.704 537.237 384.389 552.133 387.434L541.977 365.214H541.864ZM568.609 259.756C559.694 260.432 551.118 262.914 543.444 266.974L568.609 278.817L592.646 262.914C585.198 260.32 577.073 259.192 568.609 259.756ZM568.384 296.412L541.3 318.632L550.892 350.101L584.747 348.409L595.355 315.136L568.271 296.412H568.384ZM595.919 360.59L583.844 385.517C598.966 380.554 611.944 370.064 620.408 356.642L595.919 360.59ZM617.022 279.607L612.282 307.917L631.241 323.933C631.354 322.467 631.354 321.001 631.354 319.534C631.354 303.969 625.937 290.096 616.909 279.607H617.022ZM617.022 279.607L612.282 307.917L631.241 323.933C631.354 322.467 631.354 321.001 631.354 319.534C631.354 303.969 625.937 290.096 616.909 279.607H617.022ZM595.919 360.59L583.844 385.517C598.966 380.554 611.944 370.064 620.408 356.642L595.919 360.59ZM568.384 296.412L541.3 318.632L550.892 350.101L584.747 348.409L595.355 315.136L568.271 296.412H568.384ZM568.609 259.756C559.694 260.432 551.118 262.914 543.444 266.974L568.609 278.817L592.646 262.914C585.198 260.32 577.073 259.192 568.609 259.756ZM541.864 365.214L516.247 363.523C524.598 375.704 537.237 384.389 552.133 387.434L541.977 365.214H541.864ZM519.633 287.389C510.943 299.119 505.639 313.557 505.639 328.783C505.639 330.249 505.639 331.603 505.752 333.069L524.372 314.459L519.633 287.389ZM519.633 287.389C510.943 299.119 505.639 313.557 505.639 328.783C505.639 330.249 505.639 331.603 505.752 333.069L524.372 314.459L519.633 287.389ZM541.864 365.214L516.247 363.523C524.598 375.704 537.237 384.389 552.133 387.434L541.977 365.214H541.864ZM568.609 259.756C559.694 260.432 551.118 262.914 543.444 266.974L568.609 278.817L592.646 262.914C585.198 260.32 577.073 259.192 568.609 259.756ZM568.384 296.412L541.3 318.632L550.892 350.101L584.747 348.409L595.355 315.136L568.271 296.412H568.384ZM595.919 360.59L583.844 385.517C598.966 380.554 611.944 370.064 620.408 356.642L595.919 360.59ZM617.022 279.607L612.282 307.917L631.241 323.933C631.354 322.467 631.354 321.001 631.354 319.534C631.354 303.969 625.937 290.096 616.909 279.607H617.022ZM617.022 279.607L612.282 307.917L631.241 323.933C631.354 322.467 631.354 321.001 631.354 319.534C631.354 303.969 625.937 290.096 616.909 279.607H617.022ZM595.919 360.59L583.844 385.517C598.966 380.554 611.944 370.064 620.408 356.642L595.919 360.59ZM568.384 296.412L541.3 318.632L550.892 350.101L584.747 348.409L595.355 315.136L568.271 296.412H568.384ZM568.609 259.756C559.694 260.432 551.118 262.914 543.444 266.974L568.609 278.817L592.646 262.914C585.198 260.32 577.073 259.192 568.609 259.756ZM541.864 365.214L516.247 363.523C524.598 375.704 537.237 384.389 552.133 387.434L541.977 365.214H541.864ZM519.633 287.389C510.943 299.119 505.639 313.557 505.639 328.783C505.639 330.249 505.639 331.603 505.752 333.069L524.372 314.459L519.633 287.389Z" fill="white"/>
<path d="M508.912 504.172V561.582C508.912 578.613 501.238 586.283 485.213 587.411L463.433 588.99V483.306L485.213 481.727C501.238 480.599 508.912 487.028 508.912 504.059V504.172Z" fill="white"/>
<path d="M608.333 470.448H607.768L591.631 546.243L624.583 543.874L608.333 470.56V470.448ZM608.333 470.448H607.768L591.631 546.243L624.583 543.874L608.333 470.56V470.448ZM404.3 438.415V642.791L809.318 613.127V408.751L404.3 438.415ZM542.315 559.214C542.315 593.502 525.275 612.112 485.213 615.045L431.158 618.992V458.266L485.213 454.319C525.162 451.386 542.315 467.515 542.315 501.803V559.214ZM637.899 603.878L631.015 572.523L585.424 575.906L578.54 608.277L544.234 610.759L582.603 447.213L633.724 443.491L672.093 601.397L637.899 603.878ZM733.822 540.265V596.885L698.838 599.48V542.859L655.73 441.912L690.487 439.318L716.217 513.308H716.556L742.285 435.595L777.043 433.001L733.935 540.265H733.822ZM607.881 470.56L591.744 546.243L624.696 543.874L608.445 470.56H607.881Z" fill="white"/>
</svg>
