<svg width="349" height="145" viewBox="0 0 349 145" fill="none" xmlns="http://www.w3.org/2000/svg">
<path d="M0 0V144.411H123.739V0H0ZM103.13 61.8904V63.7812C102.82 70.5853 100.873 76.9606 97.661 82.5205C96.2693 84.9315 94.6456 87.1807 92.818 89.2473C89.8658 92.5861 86.3865 95.4398 82.4994 97.6821C79.3083 99.5307 75.843 100.958 72.1879 101.899C69.4747 102.595 66.6561 103.024 63.7671 103.151C63.1416 103.179 62.5089 103.193 61.8763 103.193C61.2437 103.193 60.6111 103.179 59.9855 103.151H56.4007C59.62 108.725 61.5741 115.121 61.8693 121.946V123.781H41.2392C41.2392 116.147 37.0921 109.477 30.9276 105.913C27.8911 104.156 24.3696 103.151 20.6161 103.151V82.5205H61.6092C61.6936 82.5205 61.785 82.5205 61.8763 82.5205C61.9677 82.5205 62.0591 82.5205 62.1434 82.5205C65.7985 82.4713 69.2287 81.4802 72.1879 79.7652C78.282 76.2366 82.4081 69.6856 82.4994 62.1575C82.4994 62.0731 82.4994 61.9818 82.4994 61.8904C82.4994 61.799 82.4994 61.7147 82.4994 61.6233C82.4081 54.0952 78.282 47.5442 72.1879 44.0156C69.1514 42.2654 65.6298 41.2603 61.8763 41.2603H51.5648H20.609V20.6301H63.6406C66.5787 20.7496 69.4325 21.1854 72.1809 21.8883C75.8359 22.8302 79.3012 24.2571 82.4924 26.1057C86.3724 28.348 89.8588 31.2017 92.811 34.5405C94.6385 36.6071 96.2622 38.8563 97.654 41.2603C100.866 46.8202 102.82 53.1955 103.123 59.9996V61.8904H103.13Z" fill="white"/>
<g clip-path="url(#clip0_1_618)">
<path d="M160.282 87.6241C159.973 87.6241 159.72 87.5187 159.523 87.3078C159.326 87.097 159.228 86.851 159.228 86.5698V59.1778C159.228 58.8685 159.326 58.6154 159.523 58.4186C159.72 58.2218 159.973 58.1234 160.282 58.1234H171.24C173.995 58.1234 176.343 58.5662 178.276 59.4519C180.216 60.3375 181.706 61.6309 182.747 63.3319C183.787 65.0329 184.349 67.1346 184.434 69.6299C184.462 70.867 184.476 71.9495 184.476 72.8773C184.476 73.8051 184.462 74.8735 184.434 76.0825C184.321 78.6973 183.766 80.8622 182.768 82.5703C181.77 84.2854 180.322 85.5576 178.424 86.387C176.526 87.2165 174.199 87.6312 171.451 87.6312H160.282V87.6241ZM166.819 81.5581H171.247C172.456 81.5581 173.461 81.3683 174.263 80.9888C175.064 80.6092 175.668 80.0117 176.076 79.1964C176.484 78.381 176.702 77.3126 176.73 75.9911C176.786 75.1758 176.821 74.4448 176.835 73.7981C176.849 73.1514 176.849 72.5048 176.835 71.8581C176.821 71.2114 176.786 70.4945 176.73 69.7072C176.674 67.7953 176.174 66.3966 175.233 65.5109C174.291 64.6252 172.892 64.1824 171.036 64.1824H166.819V81.5441V81.5581Z" fill="white"/>
<path d="M190.458 87.6238C190.148 87.6238 189.895 87.5183 189.699 87.3075C189.502 87.0966 189.403 86.8506 189.403 86.5694V59.1774C189.403 58.8681 189.502 58.6151 189.699 58.4183C189.895 58.2215 190.148 58.123 190.458 58.123H210.139C210.448 58.123 210.701 58.2215 210.898 58.4183C211.095 58.6151 211.193 58.8681 211.193 59.1774V63.1418C211.193 63.451 211.095 63.7041 210.898 63.9009C210.701 64.0977 210.448 64.1961 210.139 64.1961H196.692V69.8826H209.211C209.52 69.8826 209.773 69.988 209.97 70.1989C210.167 70.4098 210.265 70.6698 210.265 70.9791V74.6482C210.265 74.9294 210.167 75.1754 209.97 75.3863C209.773 75.5972 209.52 75.7026 209.211 75.7026H196.692V81.5577H210.476C210.786 81.5577 211.039 81.6562 211.235 81.853C211.432 82.0498 211.531 82.3028 211.531 82.6121V86.5765C211.531 86.8576 211.432 87.1036 211.235 87.3145C211.039 87.5254 210.786 87.6308 210.476 87.6308H190.458V87.6238Z" fill="white"/>
<path d="M217.392 87.6238C217.083 87.6238 216.83 87.5184 216.633 87.3075C216.436 87.0966 216.338 86.8506 216.338 86.5694V59.1774C216.338 58.8681 216.436 58.6151 216.633 58.4183C216.83 58.2215 217.083 58.123 217.392 58.123H229.194C231.528 58.123 233.559 58.4815 235.281 59.1985C237.01 59.9154 238.36 60.9909 239.33 62.4248C240.3 63.8587 240.785 65.6722 240.785 67.8652C240.785 70.0583 240.3 71.8156 239.33 73.2214C238.36 74.6272 237.01 75.6674 235.281 76.3422C233.552 77.017 231.521 77.3544 229.194 77.3544H224.175V86.5835C224.175 86.8647 224.07 87.1107 223.859 87.3215C223.648 87.5324 223.388 87.6378 223.079 87.6378H217.392V87.6238ZM224.049 71.5203H228.983C230.192 71.5203 231.155 71.2111 231.872 70.5925C232.589 69.974 232.947 69.0321 232.947 67.7668C232.947 66.6984 232.638 65.7987 232.02 65.0677C231.401 64.3367 230.389 63.9712 228.983 63.9712H224.049V71.5133V71.5203Z" fill="white"/>
<path d="M252.376 87.6237C252.067 87.6237 251.814 87.5183 251.617 87.3074C251.42 87.0966 251.322 86.8505 251.322 86.5694V64.7373H243.822C243.513 64.7373 243.26 64.6319 243.063 64.421C242.866 64.2101 242.768 63.9641 242.768 63.6829V59.1703C242.768 58.861 242.866 58.608 243.063 58.4112C243.26 58.2144 243.513 58.116 243.822 58.116H266.498C266.807 58.116 267.06 58.2144 267.257 58.4112C267.453 58.608 267.552 58.861 267.552 59.1703V63.6829C267.552 63.9641 267.453 64.2101 267.257 64.421C267.06 64.6319 266.807 64.7373 266.498 64.7373H258.998V86.5694C258.998 86.8505 258.899 87.0966 258.702 87.3074C258.506 87.5183 258.252 87.6237 257.943 87.6237H252.383H252.376Z" fill="white"/>
<path d="M165.392 123.999C164.035 123.999 162.911 123.746 162.025 123.247C161.132 122.748 160.458 122.045 160.001 121.146C159.544 120.246 159.291 119.199 159.249 118.011C159.235 117.406 159.228 116.759 159.228 116.064C159.228 115.368 159.228 114.707 159.249 114.074C159.291 112.879 159.544 111.832 160.001 110.939C160.458 110.04 161.132 109.344 162.025 108.838C162.918 108.339 164.042 108.086 165.392 108.086C166.411 108.086 167.297 108.226 168.063 108.507C168.829 108.789 169.469 109.161 169.975 109.632C170.481 110.103 170.868 110.63 171.135 111.214C171.402 111.797 171.549 112.394 171.578 113.013C171.592 113.147 171.549 113.259 171.458 113.343C171.36 113.435 171.247 113.477 171.114 113.477H169.898C169.764 113.477 169.652 113.442 169.553 113.364C169.455 113.294 169.384 113.161 169.342 112.964C169.089 111.811 168.625 111.024 167.936 110.602C167.255 110.173 166.404 109.962 165.385 109.962C164.19 109.962 163.248 110.3 162.559 110.968C161.863 111.635 161.498 112.711 161.456 114.18C161.414 115.389 161.414 116.626 161.456 117.891C161.498 119.367 161.87 120.436 162.559 121.103C163.255 121.771 164.197 122.109 165.385 122.109C166.404 122.109 167.255 121.898 167.936 121.469C168.618 121.04 169.089 120.253 169.342 119.107C169.384 118.917 169.455 118.784 169.553 118.707C169.652 118.636 169.764 118.594 169.898 118.594H171.114C171.247 118.594 171.36 118.636 171.458 118.714C171.556 118.798 171.592 118.903 171.578 119.037C171.549 119.655 171.402 120.26 171.135 120.85C170.868 121.441 170.481 121.968 169.975 122.439C169.469 122.91 168.829 123.289 168.063 123.564C167.297 123.845 166.404 123.985 165.392 123.985V123.999Z" fill="white"/>
<path d="M180.111 123.999C178.846 123.999 177.763 123.781 176.863 123.345C175.964 122.909 175.275 122.242 174.783 121.335C174.298 120.428 174.024 119.29 173.967 117.919C173.953 117.272 173.946 116.647 173.946 116.049C173.946 115.452 173.946 114.833 173.967 114.179C174.024 112.823 174.312 111.691 174.818 110.784C175.324 109.878 176.034 109.203 176.941 108.753C177.847 108.303 178.902 108.078 180.111 108.078C181.32 108.078 182.353 108.303 183.26 108.753C184.166 109.203 184.876 109.878 185.39 110.784C185.903 111.691 186.184 112.823 186.226 114.179C186.254 114.826 186.268 115.452 186.268 116.049C186.268 116.647 186.254 117.265 186.226 117.919C186.184 119.29 185.91 120.428 185.418 121.335C184.926 122.242 184.23 122.909 183.33 123.345C182.43 123.781 181.355 123.999 180.104 123.999H180.111ZM180.111 122.122C181.228 122.122 182.149 121.785 182.859 121.103C183.576 120.428 183.963 119.325 184.019 117.813C184.047 117.153 184.061 116.555 184.061 116.035C184.061 115.515 184.047 114.925 184.019 114.278C183.991 113.259 183.801 112.436 183.457 111.804C183.112 111.171 182.648 110.707 182.079 110.412C181.502 110.117 180.849 109.969 180.111 109.969C179.373 109.969 178.719 110.117 178.143 110.412C177.566 110.707 177.109 111.171 176.765 111.804C176.421 112.436 176.224 113.266 176.182 114.278C176.167 114.925 176.16 115.515 176.16 116.035C176.16 116.555 176.167 117.153 176.182 117.813C176.238 119.332 176.631 120.428 177.355 121.103C178.079 121.778 179 122.122 180.118 122.122H180.111Z" fill="white"/>
<path d="M190.015 123.774C189.853 123.774 189.727 123.725 189.642 123.634C189.551 123.535 189.509 123.416 189.509 123.268V108.837C189.509 108.676 189.551 108.549 189.642 108.451C189.734 108.352 189.853 108.31 190.015 108.31H191.034C191.21 108.31 191.343 108.352 191.435 108.43C191.526 108.514 191.575 108.57 191.589 108.62L198.928 119.887V108.837C198.928 108.676 198.97 108.549 199.061 108.451C199.153 108.352 199.272 108.31 199.434 108.31H200.495C200.657 108.31 200.783 108.36 200.882 108.451C200.98 108.549 201.022 108.676 201.022 108.837V123.247C201.022 123.395 200.973 123.521 200.882 123.619C200.783 123.725 200.664 123.774 200.516 123.774H199.455C199.293 123.774 199.174 123.732 199.089 123.641C199.005 123.549 198.956 123.493 198.921 123.465L191.603 112.303V123.261C191.603 123.409 191.554 123.528 191.463 123.627C191.364 123.725 191.238 123.767 191.076 123.767H190.015V123.774Z" fill="white"/>
<path d="M210.434 123.999C209.077 123.999 207.953 123.746 207.067 123.247C206.174 122.748 205.5 122.045 205.043 121.145C204.586 120.246 204.333 119.198 204.291 118.01C204.277 117.406 204.27 116.759 204.27 116.063C204.27 115.367 204.277 114.707 204.291 114.074C204.333 112.879 204.586 111.832 205.043 110.939C205.5 110.039 206.174 109.344 207.067 108.837C207.96 108.338 209.084 108.085 210.434 108.085C211.453 108.085 212.339 108.226 213.105 108.507C213.871 108.788 214.511 109.161 215.017 109.632C215.523 110.103 215.91 110.63 216.177 111.213C216.444 111.797 216.591 112.394 216.619 113.013C216.634 113.146 216.591 113.259 216.5 113.343C216.402 113.434 216.289 113.477 216.156 113.477H214.94C214.806 113.477 214.694 113.441 214.595 113.364C214.497 113.294 214.426 113.16 214.384 112.963C214.131 111.811 213.667 111.023 212.978 110.602C212.29 110.173 211.439 109.962 210.427 109.962C209.232 109.962 208.29 110.299 207.601 110.967C206.905 111.635 206.54 112.71 206.498 114.179C206.456 115.388 206.456 116.626 206.498 117.891C206.54 119.367 206.912 120.435 207.601 121.103C208.297 121.771 209.239 122.108 210.427 122.108C211.446 122.108 212.297 121.897 212.978 121.469C213.66 121.04 214.131 120.253 214.384 119.107C214.426 118.917 214.497 118.783 214.595 118.706C214.694 118.636 214.806 118.594 214.94 118.594H216.156C216.289 118.594 216.402 118.636 216.5 118.713C216.598 118.798 216.634 118.903 216.619 119.037C216.591 119.655 216.444 120.26 216.177 120.85C215.91 121.44 215.523 121.968 215.017 122.439C214.511 122.909 213.871 123.289 213.105 123.563C212.339 123.844 211.446 123.985 210.434 123.985V123.999Z" fill="white"/>
<path d="M220.084 123.774C219.923 123.774 219.796 123.725 219.712 123.634C219.62 123.535 219.578 123.416 219.578 123.268V108.837C219.578 108.676 219.62 108.549 219.712 108.451C219.803 108.352 219.923 108.31 220.084 108.31H229.208C229.37 108.31 229.496 108.36 229.58 108.451C229.672 108.549 229.714 108.676 229.714 108.837V109.674C229.714 109.836 229.672 109.962 229.58 110.046C229.489 110.138 229.37 110.18 229.208 110.18H221.694V115.023H228.723C228.885 115.023 229.011 115.072 229.095 115.164C229.187 115.262 229.229 115.389 229.229 115.55V116.366C229.229 116.513 229.187 116.633 229.095 116.731C229.004 116.829 228.885 116.872 228.723 116.872H221.694V121.89H229.384C229.545 121.89 229.672 121.933 229.756 122.024C229.847 122.115 229.89 122.235 229.89 122.396V123.261C229.89 123.409 229.847 123.528 229.756 123.627C229.665 123.725 229.545 123.767 229.384 123.767H220.077L220.084 123.774Z" fill="white"/>
<path d="M233.482 123.774C233.32 123.774 233.193 123.725 233.109 123.634C233.018 123.535 232.976 123.416 232.976 123.268V108.837C232.976 108.676 233.018 108.549 233.109 108.451C233.201 108.352 233.32 108.31 233.482 108.31H239.091C240.18 108.31 241.129 108.486 241.931 108.837C242.732 109.189 243.357 109.716 243.8 110.419C244.243 111.122 244.461 111.993 244.461 113.041C244.461 114.088 244.243 114.953 243.8 115.649C243.357 116.344 242.739 116.865 241.931 117.216C241.129 117.568 240.18 117.743 239.091 117.743H235.183V123.268C235.183 123.416 235.133 123.535 235.042 123.634C234.944 123.732 234.817 123.774 234.656 123.774H233.482ZM235.155 115.888H238.978C240.068 115.888 240.883 115.642 241.431 115.157C241.98 114.672 242.247 113.962 242.247 113.034C242.247 112.106 241.98 111.41 241.453 110.911C240.925 110.412 240.096 110.159 238.978 110.159H235.155V115.881V115.888Z" fill="white"/>
<path d="M251.048 123.774C250.9 123.774 250.781 123.725 250.682 123.634C250.584 123.535 250.542 123.416 250.542 123.268V110.271H246.296C246.149 110.271 246.029 110.222 245.931 110.131C245.832 110.032 245.79 109.913 245.79 109.765V108.837C245.79 108.676 245.839 108.549 245.931 108.451C246.029 108.352 246.149 108.31 246.296 108.31H256.945C257.107 108.31 257.233 108.36 257.332 108.451C257.43 108.549 257.472 108.676 257.472 108.837V109.765C257.472 109.913 257.423 110.032 257.332 110.131C257.233 110.229 257.107 110.271 256.945 110.271H252.721V123.268C252.721 123.416 252.671 123.535 252.58 123.634C252.482 123.732 252.355 123.774 252.193 123.774H251.041H251.048Z" fill="white"/>
<path d="M269.787 123.999C268.507 123.999 267.432 123.802 266.56 123.401C265.689 123.001 265.021 122.495 264.564 121.862C264.1 121.237 263.854 120.576 263.826 119.887C263.826 119.767 263.875 119.662 263.967 119.564C264.065 119.465 264.178 119.423 264.311 119.423H265.436C265.612 119.423 265.745 119.465 265.836 119.557C265.928 119.648 265.984 119.746 266.012 119.866C266.104 120.217 266.286 120.569 266.568 120.913C266.849 121.258 267.249 121.546 267.769 121.778C268.29 122.01 268.964 122.122 269.794 122.122C271.059 122.122 271.994 121.897 272.591 121.447C273.189 120.998 273.484 120.4 273.484 119.648C273.484 119.135 273.322 118.713 273.006 118.397C272.69 118.081 272.205 117.799 271.558 117.546C270.911 117.293 270.068 117.026 269.042 116.731C267.966 116.422 267.074 116.084 266.371 115.712C265.661 115.346 265.134 114.889 264.789 114.341C264.445 113.8 264.269 113.104 264.269 112.268C264.269 111.473 264.48 110.763 264.909 110.138C265.337 109.512 265.956 109.013 266.764 108.648C267.573 108.282 268.55 108.092 269.681 108.092C270.595 108.092 271.396 108.212 272.078 108.458C272.76 108.704 273.336 109.027 273.793 109.428C274.25 109.828 274.595 110.264 274.834 110.735C275.066 111.199 275.192 111.649 275.206 112.092C275.206 112.197 275.171 112.296 275.094 112.387C275.016 112.485 274.904 112.528 274.742 112.528H273.568C273.463 112.528 273.358 112.499 273.245 112.436C273.133 112.38 273.048 112.268 272.992 112.106C272.901 111.501 272.563 110.995 271.973 110.581C271.382 110.166 270.616 109.962 269.674 109.962C268.732 109.962 267.938 110.145 267.341 110.517C266.743 110.883 266.448 111.459 266.448 112.239C266.448 112.738 266.589 113.153 266.87 113.491C267.151 113.821 267.594 114.116 268.198 114.362C268.803 114.615 269.59 114.875 270.56 115.156C271.741 115.48 272.704 115.824 273.456 116.183C274.208 116.541 274.763 116.991 275.122 117.532C275.48 118.066 275.663 118.755 275.663 119.599C275.663 120.527 275.417 121.321 274.932 121.975C274.447 122.628 273.765 123.134 272.887 123.479C272.008 123.823 270.975 123.999 269.78 123.999H269.787Z" fill="white"/>
<path d="M282.27 123.774C282.123 123.774 282.003 123.725 281.905 123.634C281.806 123.542 281.764 123.416 281.764 123.268V110.271H277.519C277.371 110.271 277.252 110.222 277.153 110.131C277.055 110.032 277.013 109.913 277.013 109.765V108.837C277.013 108.676 277.062 108.549 277.153 108.451C277.252 108.352 277.371 108.31 277.519 108.31H288.168C288.329 108.31 288.456 108.36 288.554 108.451C288.653 108.549 288.695 108.676 288.695 108.837V109.765C288.695 109.913 288.646 110.032 288.554 110.131C288.463 110.229 288.329 110.271 288.168 110.271H283.943V123.268C283.943 123.416 283.894 123.535 283.803 123.634C283.704 123.732 283.578 123.774 283.416 123.774H282.27Z" fill="white"/>
<path d="M296.412 123.999C295.147 123.999 294.065 123.781 293.165 123.345C292.265 122.909 291.577 122.242 291.085 121.335C290.599 120.428 290.325 119.29 290.269 117.919C290.255 117.272 290.248 116.647 290.248 116.049C290.248 115.452 290.255 114.833 290.269 114.179C290.325 112.823 290.614 111.691 291.12 110.784C291.626 109.878 292.336 109.203 293.242 108.753C294.149 108.303 295.204 108.078 296.412 108.078C297.621 108.078 298.655 108.303 299.561 108.753C300.468 109.203 301.178 109.878 301.691 110.784C302.204 111.691 302.486 112.823 302.528 114.179C302.556 114.826 302.57 115.452 302.57 116.049C302.57 116.647 302.556 117.265 302.528 117.919C302.486 119.29 302.211 120.428 301.719 121.335C301.227 122.242 300.531 122.909 299.632 123.345C298.732 123.781 297.657 123.999 296.405 123.999H296.412ZM296.412 122.122C297.53 122.122 298.451 121.785 299.161 121.103C299.878 120.428 300.264 119.325 300.321 117.813C300.349 117.153 300.363 116.555 300.363 116.035C300.363 115.515 300.349 114.925 300.321 114.278C300.293 113.259 300.103 112.436 299.758 111.804C299.414 111.171 298.95 110.707 298.381 110.412C297.804 110.117 297.151 109.969 296.412 109.969C295.674 109.969 295.021 110.117 294.444 110.412C293.868 110.707 293.411 111.171 293.067 111.804C292.722 112.436 292.525 113.266 292.483 114.278C292.469 114.925 292.462 115.515 292.462 116.035C292.462 116.555 292.462 117.153 292.483 117.813C292.54 119.332 292.933 120.428 293.657 121.103C294.381 121.778 295.302 122.122 296.42 122.122H296.412Z" fill="white"/>
<path d="M306.317 123.774C306.155 123.774 306.028 123.725 305.944 123.634C305.853 123.535 305.811 123.416 305.811 123.268V108.837C305.811 108.676 305.853 108.549 305.944 108.451C306.035 108.352 306.155 108.31 306.317 108.31H311.708C313.374 108.31 314.688 108.704 315.665 109.484C316.635 110.264 317.12 111.424 317.12 112.956C317.12 114.088 316.839 115.016 316.27 115.733C315.7 116.45 314.934 116.942 313.957 117.223L317.359 123.099C317.401 123.191 317.422 123.268 317.422 123.345C317.422 123.465 317.373 123.563 317.282 123.655C317.183 123.746 317.078 123.788 316.959 123.788H315.897C315.644 123.788 315.461 123.725 315.342 123.591C315.222 123.458 315.124 123.324 315.033 123.191L311.827 117.582H307.961V123.282C307.961 123.43 307.912 123.549 307.821 123.648C307.722 123.746 307.596 123.788 307.434 123.788H306.31L306.317 123.774ZM307.968 115.691H311.617C312.72 115.691 313.549 115.459 314.091 114.995C314.632 114.531 314.906 113.842 314.906 112.928C314.906 112.015 314.639 111.347 314.098 110.876C313.564 110.405 312.734 110.166 311.609 110.166H307.961V115.691H307.968Z" fill="white"/>
<path d="M320.789 123.774C320.628 123.774 320.501 123.725 320.417 123.634C320.325 123.535 320.283 123.416 320.283 123.268V108.837C320.283 108.676 320.325 108.549 320.417 108.451C320.508 108.352 320.628 108.31 320.789 108.31H329.913C330.075 108.31 330.201 108.36 330.285 108.451C330.377 108.549 330.419 108.676 330.419 108.837V109.674C330.419 109.836 330.377 109.962 330.285 110.046C330.194 110.138 330.075 110.18 329.913 110.18H322.399V115.023H329.428C329.59 115.023 329.716 115.072 329.8 115.164C329.892 115.262 329.934 115.389 329.934 115.55V116.366C329.934 116.513 329.892 116.633 329.8 116.731C329.709 116.829 329.59 116.872 329.428 116.872H322.399V121.89H330.089C330.25 121.89 330.377 121.933 330.461 122.024C330.553 122.115 330.595 122.235 330.595 122.396V123.261C330.595 123.409 330.553 123.528 330.461 123.627C330.37 123.725 330.25 123.767 330.089 123.767H320.782L320.789 123.774Z" fill="white"/>
<path d="M160.282 50.145C159.973 50.145 159.72 50.0396 159.523 49.8287C159.326 49.6178 159.228 49.3718 159.228 49.0907V21.6635C159.228 21.3542 159.326 21.1012 159.523 20.9043C159.72 20.7075 159.973 20.6091 160.282 20.6091H171.76C175.415 20.6091 178.283 21.4456 180.371 23.1185C182.451 24.7914 183.492 27.1602 183.492 30.2318C183.492 32.2281 183.014 33.915 182.058 35.2927C181.102 36.6704 179.837 37.7107 178.262 38.4136L184.047 48.7954C184.131 48.9641 184.173 49.1188 184.173 49.2594C184.173 49.4843 184.082 49.6881 183.899 49.8709C183.717 50.0536 183.513 50.145 183.288 50.145H177.679C177.144 50.145 176.751 50.0115 176.498 49.7444C176.245 49.4773 176.062 49.2312 175.95 49.0063L171.142 39.721H166.84V49.0907C166.84 49.3718 166.735 49.6178 166.524 49.8287C166.313 50.0396 166.053 50.145 165.743 50.145H160.303H160.282ZM166.826 33.7253H171.676C172.997 33.7253 173.988 33.4019 174.649 32.7553C175.31 32.1086 175.64 31.237 175.64 30.1405C175.64 29.0439 175.324 28.1583 174.691 27.4835C174.059 26.8087 173.054 26.4713 171.676 26.4713H166.826V33.7323V33.7253Z" fill="white"/>
<path d="M200.797 50.5667C198.238 50.5667 196.01 50.152 194.105 49.3226C192.207 48.4932 190.738 47.2139 189.698 45.4848C188.658 43.7556 188.138 41.5556 188.138 38.8775V21.6635C188.138 21.3542 188.236 21.1012 188.433 20.9043C188.63 20.7075 188.883 20.6091 189.192 20.6091H194.632C194.942 20.6091 195.202 20.7075 195.413 20.9043C195.624 21.1012 195.729 21.3542 195.729 21.6635V38.8424C195.729 40.6699 196.165 42.0406 197.036 42.9543C197.908 43.8681 199.145 44.325 200.748 44.325C202.35 44.325 203.552 43.8681 204.438 42.9543C205.324 42.0406 205.766 40.6699 205.766 38.8424V21.6635C205.766 21.3542 205.872 21.1012 206.083 20.9043C206.294 20.7075 206.54 20.6091 206.821 20.6091H212.31C212.592 20.6091 212.838 20.7075 213.048 20.9043C213.259 21.1012 213.365 21.3542 213.365 21.6635V38.8775C213.365 41.5485 212.845 43.7486 211.804 45.4848C210.764 47.2209 209.302 48.4932 207.418 49.3226C205.534 50.152 203.327 50.5667 200.79 50.5667H200.797Z" fill="white"/>
<path d="M220.043 50.145C219.733 50.145 219.48 50.0396 219.283 49.8287C219.087 49.6178 218.988 49.3718 218.988 49.0907V21.6635C218.988 21.3542 219.087 21.1012 219.283 20.9043C219.48 20.7075 219.733 20.6091 220.043 20.6091H224.513C224.991 20.6091 225.335 20.7146 225.546 20.9254C225.757 21.1363 225.891 21.298 225.947 21.4104L236.244 37.6123V21.6635C236.244 21.3542 236.343 21.1012 236.54 20.9043C236.737 20.7075 236.99 20.6091 237.299 20.6091H242.36C242.669 20.6091 242.922 20.7075 243.119 20.9043C243.316 21.1012 243.414 21.3542 243.414 21.6635V49.0485C243.414 49.3578 243.316 49.6178 243.119 49.8287C242.922 50.0396 242.669 50.145 242.36 50.145H237.847C237.397 50.145 237.067 50.0325 236.856 49.8076C236.645 49.5827 236.512 49.4281 236.455 49.3437L226.158 33.7323V49.0907C226.158 49.3718 226.059 49.6178 225.863 49.8287C225.666 50.0396 225.413 50.145 225.104 50.145H220.043Z" fill="white"/>
<path d="M250.38 50.145C250.07 50.145 249.817 50.0396 249.62 49.8287C249.424 49.6178 249.325 49.3718 249.325 49.0907V21.6635C249.325 21.3542 249.424 21.1012 249.62 20.9043C249.817 20.7075 250.07 20.6091 250.38 20.6091H254.85C255.328 20.6091 255.672 20.7146 255.883 20.9254C256.094 21.1363 256.228 21.298 256.284 21.4104L266.581 37.6123V21.6635C266.581 21.3542 266.68 21.1012 266.877 20.9043C267.073 20.7075 267.326 20.6091 267.636 20.6091H272.697C273.006 20.6091 273.259 20.7075 273.456 20.9043C273.653 21.1012 273.751 21.3542 273.751 21.6635V49.0485C273.751 49.3578 273.653 49.6178 273.456 49.8287C273.259 50.0396 273.006 50.145 272.697 50.145H268.184C267.734 50.145 267.404 50.0325 267.193 49.8076C266.982 49.5827 266.849 49.4281 266.792 49.3437L256.495 33.7323V49.0907C256.495 49.3718 256.396 49.6178 256.2 49.8287C256.003 50.0396 255.75 50.145 255.44 50.145H250.38Z" fill="white"/>
<path d="M280.724 50.145C280.415 50.145 280.162 50.0396 279.965 49.8287C279.768 49.6178 279.67 49.3718 279.67 49.0907V21.6635C279.67 21.3542 279.768 21.1012 279.965 20.9043C280.162 20.7075 280.415 20.6091 280.724 20.6091H286.383C286.692 20.6091 286.952 20.7075 287.163 20.9043C287.374 21.1012 287.479 21.3542 287.479 21.6635V49.0907C287.479 49.3718 287.374 49.6178 287.163 49.8287C286.952 50.0396 286.692 50.145 286.383 50.145H280.724Z" fill="white"/>
<path d="M294.395 50.145C294.086 50.145 293.833 50.0396 293.636 49.8287C293.439 49.6178 293.341 49.3718 293.341 49.0907V21.6635C293.341 21.3542 293.439 21.1012 293.636 20.9043C293.833 20.7075 294.086 20.6091 294.395 20.6091H298.866C299.344 20.6091 299.688 20.7146 299.899 20.9254C300.11 21.1363 300.243 21.298 300.3 21.4104L310.597 37.6123V21.6635C310.597 21.3542 310.695 21.1012 310.892 20.9043C311.089 20.7075 311.342 20.6091 311.651 20.6091H316.712C317.022 20.6091 317.275 20.7075 317.471 20.9043C317.668 21.1012 317.767 21.3542 317.767 21.6635V49.0485C317.767 49.3578 317.668 49.6178 317.471 49.8287C317.275 50.0396 317.022 50.145 316.712 50.145H312.2C311.75 50.145 311.419 50.0325 311.209 49.8076C310.998 49.5827 310.864 49.4281 310.808 49.3437L300.51 33.7323V49.0907C300.51 49.3718 300.412 49.6178 300.215 49.8287C300.018 50.0396 299.765 50.145 299.456 50.145H294.395Z" fill="white"/>
<path d="M335.873 50.5668C333.202 50.5668 330.904 50.124 328.971 49.2383C327.045 48.3526 325.555 47.0593 324.5 45.3583C323.446 43.6573 322.863 41.5837 322.75 39.1306C322.722 37.9216 322.708 36.6353 322.708 35.2717C322.708 33.908 322.722 32.6077 322.75 31.3706C322.863 28.9807 323.453 26.9564 324.521 25.2975C325.59 23.6387 327.094 22.3735 329.034 21.5019C330.974 20.6303 333.252 20.1945 335.873 20.1945C337.982 20.1945 339.852 20.4545 341.482 20.9747C343.113 21.4948 344.484 22.1907 345.594 23.0623C346.705 23.9339 347.556 24.8898 348.146 25.9301C348.736 26.9704 349.046 27.9966 349.074 29.0088C349.074 29.2619 348.982 29.4727 348.8 29.6414C348.617 29.8101 348.399 29.8945 348.146 29.8945H341.982C341.672 29.8945 341.44 29.8453 341.286 29.7469C341.131 29.6485 340.997 29.5009 340.885 29.304C340.688 28.8823 340.4 28.4395 340.02 27.9756C339.641 27.5116 339.121 27.111 338.46 26.7736C337.799 26.4362 336.935 26.2675 335.866 26.2675C334.292 26.2675 333.041 26.6893 332.113 27.5327C331.185 28.3762 330.679 29.7258 330.595 31.5814C330.51 33.9994 330.51 36.4525 330.595 38.9268C330.679 40.8949 331.199 42.3147 332.155 43.1863C333.111 44.0579 334.39 44.4937 335.993 44.4937C337.033 44.4937 337.968 44.311 338.797 43.9455C339.627 43.58 340.281 43.0106 340.758 42.2374C341.236 41.4642 341.475 40.4731 341.475 39.2641V38.4628H337.511C337.202 38.4628 336.949 38.3574 336.752 38.1465C336.555 37.9357 336.457 37.6756 336.457 37.3663V34.2454C336.457 33.9362 336.555 33.6761 336.752 33.4652C336.949 33.2543 337.202 33.1489 337.511 33.1489H348.146C348.455 33.1489 348.708 33.2543 348.905 33.4652C349.102 33.6761 349.2 33.9362 349.2 34.2454V39.0533C349.2 41.4713 348.652 43.5378 347.556 45.2529C346.459 46.9679 344.906 48.2824 342.895 49.1961C340.885 50.1099 338.544 50.5668 335.866 50.5668H335.873Z" fill="white"/>
</g>
<defs>
<clipPath id="clip0_1_618">
<rect width="189.973" height="103.804" fill="white" transform="translate(158.63 20.1945)"/>
</clipPath>
</defs>
</svg>
