<svg width="539" height="295" viewBox="0 0 539 295" fill="none" xmlns="http://www.w3.org/2000/svg">
<g clip-path="url(#clip0_1_388)">
<path d="M4.68159 191.106C3.80505 191.106 3.08791 190.808 2.53011 190.21C1.97232 189.612 1.69339 188.915 1.69339 188.118V110.485C1.69339 109.608 1.97232 108.891 2.53011 108.333C3.08791 107.775 3.80505 107.496 4.68159 107.496H35.739C43.5482 107.496 50.2019 108.752 55.6803 111.262C61.1786 113.772 65.402 117.437 68.3503 122.258C71.2987 127.079 72.8924 133.036 73.1314 140.108C73.2111 143.614 73.251 146.682 73.251 149.311C73.251 151.941 73.2111 154.969 73.1314 158.396C72.8127 165.806 71.2389 171.942 68.4101 176.783C65.5812 181.644 61.4774 185.25 56.0987 187.6C50.7199 189.951 44.1259 191.126 36.3367 191.126H4.68159V191.106ZM23.2085 173.914H35.7589C39.1854 173.914 42.0342 173.376 44.3052 172.301C46.5763 171.225 48.2895 169.532 49.4449 167.221C50.6003 164.91 51.2179 161.882 51.2976 158.137C51.457 155.826 51.5566 153.754 51.5964 151.921C51.6363 150.088 51.6363 148.256 51.5964 146.423C51.5566 144.59 51.457 142.558 51.2976 140.327C51.1382 134.908 49.7238 130.944 47.0543 128.434C44.3849 125.924 40.4205 124.669 35.1613 124.669H23.2085V173.874V173.914Z" fill="white"/>
<path d="M90.204 191.106C89.3275 191.106 88.6103 190.807 88.0525 190.209C87.4947 189.612 87.2158 188.915 87.2158 188.118V110.484C87.2158 109.608 87.4947 108.89 88.0525 108.333C88.6103 107.775 89.3275 107.496 90.204 107.496H145.984C146.86 107.496 147.578 107.775 148.135 108.333C148.693 108.89 148.972 109.608 148.972 110.484V121.72C148.972 122.596 148.693 123.314 148.135 123.871C147.578 124.429 146.86 124.708 145.984 124.708H107.874V140.824H143.354C144.231 140.824 144.948 141.123 145.506 141.721C146.064 142.319 146.342 143.056 146.342 143.932V154.331C146.342 155.128 146.064 155.825 145.506 156.423C144.948 157.02 144.231 157.319 143.354 157.319H107.874V173.914H146.94C147.817 173.914 148.534 174.193 149.092 174.751C149.649 175.308 149.928 176.025 149.928 176.902V188.138C149.928 188.935 149.649 189.632 149.092 190.229C148.534 190.827 147.817 191.126 146.94 191.126H90.204V191.106Z" fill="white"/>
<path d="M166.543 191.106C165.666 191.106 164.949 190.807 164.391 190.209C163.833 189.612 163.554 188.915 163.554 188.118V110.484C163.554 109.608 163.833 108.89 164.391 108.333C164.949 107.775 165.666 107.496 166.543 107.496H199.991C206.604 107.496 212.362 108.512 217.242 110.544C222.143 112.576 225.968 115.624 228.717 119.688C231.466 123.752 232.841 128.892 232.841 135.107C232.841 141.322 231.466 146.303 228.717 150.287C225.968 154.271 222.143 157.22 217.242 159.132C212.342 161.045 206.585 162.001 199.991 162.001H185.767V188.158C185.767 188.954 185.468 189.652 184.87 190.249C184.273 190.847 183.536 191.146 182.659 191.146H166.543V191.106ZM185.408 145.466H199.393C202.819 145.466 205.549 144.59 207.581 142.836C209.613 141.083 210.629 138.414 210.629 134.828C210.629 131.8 209.752 129.25 207.999 127.178C206.246 125.106 203.377 124.071 199.393 124.071H185.408V145.446V145.466Z" fill="white"/>
<path d="M265.691 191.106C264.815 191.106 264.098 190.807 263.54 190.209C262.982 189.612 262.703 188.914 262.703 188.117V126.242H241.447C240.57 126.242 239.853 125.943 239.295 125.345C238.738 124.748 238.459 124.05 238.459 123.254V110.464C238.459 109.587 238.738 108.87 239.295 108.313C239.853 107.755 240.57 107.476 241.447 107.476H305.713C306.59 107.476 307.307 107.755 307.865 108.313C308.423 108.87 308.701 109.587 308.701 110.464V123.254C308.701 124.05 308.423 124.748 307.865 125.345C307.307 125.943 306.59 126.242 305.713 126.242H284.457V188.117C284.457 188.914 284.178 189.612 283.621 190.209C283.063 190.807 282.346 191.106 281.469 191.106H265.711H265.691Z" fill="white"/>
<path d="M19.1644 294.2C15.3196 294.2 12.1322 293.483 9.62211 292.068C7.0921 290.654 5.17964 288.662 3.88475 286.112C2.58986 283.562 1.87271 280.594 1.75318 277.227C1.71334 275.514 1.69339 273.681 1.69339 271.709C1.69339 269.736 1.69342 267.864 1.75318 266.071C1.87271 262.684 2.58986 259.716 3.88475 257.186C5.17964 254.636 7.0921 252.664 9.62211 251.229C12.1521 249.815 15.3395 249.098 19.1644 249.098C22.053 249.098 24.5631 249.496 26.7346 250.293C28.906 251.09 30.7188 252.146 32.1532 253.481C33.5875 254.815 34.6832 256.309 35.4402 257.963C36.1972 259.616 36.6156 261.31 36.6952 263.063C36.7351 263.441 36.6156 263.76 36.3566 263.999C36.0777 264.258 35.7589 264.378 35.3804 264.378H31.934C31.5555 264.378 31.2368 264.278 30.9579 264.059C30.679 263.86 30.4798 263.481 30.3603 262.923C29.6431 259.656 28.3283 257.425 26.376 256.23C24.4436 255.015 22.0331 254.417 19.1445 254.417C15.7579 254.417 13.0884 255.373 11.1361 257.266C9.16391 259.158 8.12802 262.206 8.00849 266.37C7.88896 269.796 7.88896 273.302 8.00849 276.888C8.12802 281.072 9.18383 284.1 11.1361 285.992C13.1083 287.885 15.7778 288.841 19.1445 288.841C22.0331 288.841 24.4436 288.243 26.376 287.028C28.3084 285.813 29.6431 283.582 30.3603 280.335C30.4798 279.797 30.679 279.418 30.9579 279.199C31.2368 279 31.5555 278.88 31.934 278.88H35.3804C35.7589 278.88 36.0777 279 36.3566 279.219C36.6355 279.458 36.7351 279.757 36.6952 280.135C36.6156 281.888 36.1972 283.602 35.4402 285.275C34.6832 286.948 33.5875 288.443 32.1532 289.777C30.7188 291.112 28.906 292.188 26.7346 292.965C24.5631 293.762 22.0331 294.16 19.1644 294.16V294.2Z" fill="white"/>
<path d="M60.8797 294.199C57.2938 294.199 54.2259 293.582 51.676 292.346C49.1261 291.111 47.1738 289.219 45.7793 286.649C44.4047 284.079 43.6278 280.852 43.4684 276.967C43.4285 275.134 43.4086 273.361 43.4086 271.668C43.4086 269.975 43.4086 268.222 43.4684 266.369C43.6278 262.524 44.4446 259.317 45.8789 256.747C47.3132 254.177 49.3253 252.265 51.8951 250.99C54.465 249.715 57.4532 249.077 60.8797 249.077C64.3061 249.077 67.2346 249.715 69.8044 250.99C72.3743 252.265 74.3863 254.177 75.8406 256.747C77.2949 259.317 78.0917 262.524 78.2113 266.369C78.2909 268.202 78.3308 269.975 78.3308 271.668C78.3308 273.361 78.2909 275.114 78.2113 276.967C78.0917 280.852 77.3148 284.079 75.9203 286.649C74.5258 289.219 72.5536 291.111 70.0037 292.346C67.4537 293.582 64.4058 294.199 60.8598 294.199H60.8797ZM60.8797 288.88C64.0472 288.88 66.6568 287.924 68.6689 285.991C70.7009 284.079 71.7966 280.951 71.956 276.668C72.0357 274.796 72.0755 273.102 72.0755 271.628C72.0755 270.154 72.0357 268.481 71.956 266.648C71.8763 263.759 71.3384 261.428 70.3622 259.636C69.3861 257.843 68.0713 256.528 66.4577 255.691C64.8241 254.854 62.9714 254.436 60.8797 254.436C58.7879 254.436 56.9352 254.854 55.3017 255.691C53.6681 256.528 52.3733 257.843 51.3971 259.636C50.421 261.428 49.8632 263.779 49.7436 266.648C49.7038 268.481 49.6839 270.154 49.6839 271.628C49.6839 273.102 49.7038 274.796 49.7436 276.668C49.903 280.971 51.0186 284.079 53.0705 285.991C55.1224 287.904 57.7321 288.88 60.8996 288.88H60.8797Z" fill="white"/>
<path d="M88.949 293.562C88.4908 293.562 88.1322 293.422 87.8932 293.163C87.6342 292.885 87.5146 292.546 87.5146 292.128V251.229C87.5146 250.771 87.6342 250.412 87.8932 250.133C88.1521 249.854 88.4908 249.735 88.949 249.735H91.8375C92.3356 249.735 92.7141 249.854 92.9731 250.074C93.2321 250.313 93.3715 250.472 93.4114 250.611L114.209 282.545V251.229C114.209 250.771 114.329 250.412 114.588 250.133C114.847 249.854 115.185 249.735 115.644 249.735H118.652C119.11 249.735 119.468 249.874 119.747 250.133C120.026 250.412 120.146 250.771 120.146 251.229V292.068C120.146 292.486 120.006 292.845 119.747 293.124C119.468 293.422 119.13 293.562 118.712 293.562H115.703C115.245 293.562 114.907 293.442 114.667 293.183C114.428 292.924 114.289 292.765 114.189 292.685L93.4512 261.05V292.108C93.4512 292.526 93.3118 292.865 93.0528 293.144C92.7739 293.422 92.4153 293.542 91.9571 293.542H88.949V293.562Z" fill="white"/>
<path d="M146.82 294.199C142.976 294.199 139.788 293.482 137.278 292.068C134.748 290.653 132.836 288.661 131.541 286.111C130.246 283.561 129.529 280.593 129.409 277.226C129.369 275.513 129.349 273.68 129.349 271.708C129.349 269.736 129.369 267.863 129.409 266.07C129.529 262.684 130.246 259.715 131.541 257.185C132.836 254.636 134.748 252.663 137.278 251.229C139.808 249.815 142.996 249.097 146.82 249.097C149.709 249.097 152.219 249.496 154.391 250.293C156.562 251.089 158.375 252.145 159.809 253.48C161.244 254.815 162.339 256.309 163.096 257.962C163.853 259.616 164.272 261.309 164.351 263.062C164.391 263.441 164.272 263.759 164.013 263.999C163.734 264.257 163.415 264.377 163.037 264.377H159.59C159.212 264.377 158.893 264.277 158.614 264.058C158.335 263.859 158.136 263.481 158.016 262.923C157.299 259.656 155.984 257.424 154.032 256.229C152.08 255.014 149.669 254.416 146.801 254.416C143.414 254.416 140.744 255.373 138.792 257.265C136.82 259.158 135.784 262.206 135.665 266.369C135.545 269.796 135.545 273.302 135.665 276.888C135.784 281.071 136.84 284.099 138.792 285.992C140.764 287.884 143.434 288.84 146.801 288.84C149.689 288.84 152.1 288.243 154.032 287.028C155.964 285.812 157.299 283.581 158.016 280.334C158.136 279.796 158.335 279.418 158.614 279.199C158.893 278.999 159.212 278.88 159.59 278.88H163.037C163.415 278.88 163.734 278.999 164.013 279.218C164.292 279.458 164.391 279.756 164.351 280.135C164.272 281.888 163.853 283.601 163.096 285.275C162.339 286.948 161.244 288.442 159.809 289.777C158.375 291.111 156.562 292.187 154.391 292.964C152.219 293.761 149.689 294.159 146.82 294.159V294.199Z" fill="white"/>
<path d="M174.173 293.562C173.714 293.562 173.356 293.422 173.117 293.163C172.858 292.885 172.738 292.546 172.738 292.128V251.229C172.738 250.771 172.858 250.412 173.117 250.133C173.376 249.854 173.714 249.735 174.173 249.735H200.03C200.489 249.735 200.847 249.874 201.086 250.133C201.345 250.412 201.465 250.771 201.465 251.229V253.6C201.465 254.058 201.345 254.416 201.086 254.655C200.827 254.914 200.489 255.034 200.03 255.034H178.734V268.76H198.656C199.114 268.76 199.473 268.899 199.712 269.158C199.971 269.437 200.09 269.796 200.09 270.254V272.565C200.09 272.983 199.971 273.322 199.712 273.601C199.453 273.88 199.114 273.999 198.656 273.999H178.734V288.223H200.528C200.987 288.223 201.345 288.343 201.584 288.601C201.843 288.86 201.963 289.199 201.963 289.657V292.108C201.963 292.526 201.843 292.865 201.584 293.144C201.325 293.422 200.987 293.542 200.528 293.542H174.153L174.173 293.562Z" fill="white"/>
<path d="M212.143 293.562C211.685 293.562 211.326 293.422 211.087 293.163C210.828 292.885 210.708 292.546 210.708 292.128V251.229C210.708 250.771 210.828 250.412 211.087 250.133C211.346 249.854 211.685 249.735 212.143 249.735H228.04C231.128 249.735 233.817 250.233 236.088 251.229C238.359 252.225 240.132 253.719 241.387 255.711C242.642 257.703 243.26 260.174 243.26 263.142C243.26 266.11 242.642 268.561 241.387 270.533C240.132 272.505 238.379 273.979 236.088 274.975C233.817 275.971 231.128 276.469 228.04 276.469H216.964V292.128C216.964 292.546 216.824 292.885 216.565 293.163C216.286 293.442 215.928 293.562 215.47 293.562H212.143ZM216.884 271.21H227.721C230.809 271.21 233.12 270.513 234.674 269.138C236.228 267.764 236.985 265.752 236.985 263.122C236.985 260.492 236.228 258.52 234.734 257.106C233.239 255.691 230.889 254.974 227.721 254.974H216.884V271.19V271.21Z" fill="white"/>
<path d="M261.926 293.562C261.508 293.562 261.169 293.422 260.89 293.163C260.611 292.885 260.492 292.546 260.492 292.128V255.293H248.459C248.041 255.293 247.702 255.153 247.423 254.895C247.145 254.616 247.025 254.277 247.025 253.859V251.229C247.025 250.771 247.164 250.412 247.423 250.133C247.702 249.854 248.041 249.735 248.459 249.735H278.64C279.098 249.735 279.457 249.874 279.736 250.133C280.015 250.412 280.134 250.771 280.134 251.229V253.859C280.134 254.277 279.995 254.616 279.736 254.895C279.457 255.173 279.098 255.293 278.64 255.293H266.667V292.128C266.667 292.546 266.528 292.885 266.269 293.163C265.99 293.442 265.632 293.562 265.173 293.562H261.906H261.926Z" fill="white"/>
<path d="M315.036 294.199C311.411 294.199 308.363 293.641 305.893 292.506C303.422 291.37 301.53 289.936 300.235 288.143C298.92 286.37 298.223 284.497 298.143 282.545C298.143 282.206 298.283 281.908 298.542 281.629C298.82 281.35 299.139 281.23 299.518 281.23H302.705C303.203 281.23 303.582 281.35 303.841 281.609C304.1 281.868 304.259 282.147 304.339 282.485C304.598 283.481 305.116 284.477 305.913 285.454C306.709 286.43 307.845 287.246 309.319 287.904C310.793 288.561 312.706 288.88 315.056 288.88C318.642 288.88 321.292 288.243 322.985 286.968C324.678 285.693 325.515 283.999 325.515 281.868C325.515 280.413 325.057 279.218 324.16 278.322C323.264 277.425 321.889 276.628 320.057 275.911C318.224 275.194 315.833 274.437 312.925 273.6C309.877 272.724 307.347 271.768 305.355 270.712C303.343 269.676 301.848 268.381 300.872 266.827C299.896 265.293 299.398 263.321 299.398 260.95C299.398 258.699 299.996 256.687 301.211 254.914C302.426 253.141 304.179 251.727 306.47 250.691C308.761 249.655 311.53 249.117 314.738 249.117C317.327 249.117 319.598 249.456 321.531 250.153C323.463 250.85 325.097 251.767 326.392 252.902C327.687 254.038 328.663 255.273 329.34 256.607C329.997 257.922 330.356 259.197 330.396 260.452C330.396 260.751 330.296 261.03 330.077 261.289C329.858 261.568 329.539 261.687 329.081 261.687H325.754C325.455 261.687 325.157 261.608 324.838 261.428C324.519 261.269 324.28 260.95 324.121 260.492C323.862 258.779 322.905 257.345 321.232 256.169C319.559 254.994 317.387 254.416 314.718 254.416C312.048 254.416 309.797 254.934 308.104 255.99C306.41 257.026 305.574 258.659 305.574 260.871C305.574 262.285 305.972 263.46 306.769 264.417C307.566 265.353 308.821 266.19 310.534 266.887C312.247 267.604 314.479 268.341 317.228 269.138C320.575 270.054 323.304 271.031 325.435 272.047C327.567 273.062 329.141 274.337 330.157 275.871C331.173 277.385 331.691 279.338 331.691 281.728C331.691 284.358 330.993 286.609 329.619 288.462C328.244 290.314 326.312 291.749 323.822 292.725C321.332 293.701 318.403 294.199 315.017 294.199H315.036Z" fill="white"/>
<path d="M350.417 293.562C349.999 293.562 349.66 293.422 349.381 293.163C349.102 292.905 348.983 292.546 348.983 292.128V255.293H336.95C336.532 255.293 336.193 255.153 335.914 254.895C335.635 254.616 335.516 254.277 335.516 253.859V251.229C335.516 250.771 335.655 250.412 335.914 250.133C336.193 249.854 336.532 249.735 336.95 249.735H367.131C367.589 249.735 367.948 249.874 368.227 250.133C368.505 250.412 368.625 250.771 368.625 251.229V253.859C368.625 254.277 368.486 254.616 368.227 254.895C367.968 255.173 367.589 255.293 367.131 255.293H355.158V292.128C355.158 292.546 355.019 292.885 354.76 293.163C354.481 293.442 354.122 293.562 353.664 293.562H350.417Z" fill="white"/>
<path d="M390.499 294.199C386.913 294.199 383.845 293.582 381.295 292.346C378.745 291.111 376.793 289.219 375.398 286.649C374.024 284.079 373.247 280.852 373.087 276.967C373.048 275.134 373.028 273.361 373.028 271.668C373.028 269.975 373.048 268.222 373.087 266.369C373.247 262.524 374.064 259.317 375.498 256.747C376.932 254.177 378.944 252.265 381.514 250.99C384.084 249.715 387.072 249.077 390.499 249.077C393.925 249.077 396.854 249.715 399.423 250.99C401.993 252.265 404.005 254.177 405.46 256.747C406.914 259.317 407.711 262.524 407.83 266.369C407.91 268.202 407.95 269.975 407.95 271.668C407.95 273.361 407.91 275.114 407.83 276.967C407.711 280.852 406.934 284.079 405.539 286.649C404.145 289.219 402.173 291.111 399.623 292.346C397.073 293.582 394.025 294.199 390.479 294.199H390.499ZM390.499 288.88C393.666 288.88 396.276 287.924 398.288 285.991C400.32 284.079 401.416 280.951 401.575 276.668C401.655 274.796 401.694 273.102 401.694 271.628C401.694 270.154 401.655 268.481 401.575 266.648C401.495 263.759 400.957 261.428 399.981 259.636C399.005 257.843 397.69 256.528 396.077 255.691C394.443 254.854 392.59 254.436 390.499 254.436C388.407 254.436 386.554 254.854 384.921 255.691C383.287 256.528 381.992 257.843 381.016 259.636C380.04 261.428 379.482 263.779 379.363 266.648C379.323 268.481 379.303 270.154 379.303 271.628C379.303 273.102 379.303 274.796 379.363 276.668C379.522 280.971 380.638 284.079 382.689 285.991C384.741 287.904 387.351 288.88 390.519 288.88H390.499Z" fill="white"/>
<path d="M418.568 293.562C418.11 293.562 417.751 293.422 417.512 293.164C417.253 292.885 417.133 292.546 417.133 292.128V251.229C417.133 250.771 417.253 250.412 417.512 250.133C417.771 249.854 418.11 249.735 418.568 249.735H433.847C438.569 249.735 442.294 250.851 445.063 253.062C447.812 255.273 449.187 258.56 449.187 262.903C449.187 266.11 448.39 268.74 446.776 270.772C445.163 272.804 442.991 274.198 440.222 274.995L449.864 291.649C449.984 291.908 450.043 292.128 450.043 292.347C450.043 292.685 449.904 292.964 449.645 293.223C449.366 293.482 449.067 293.602 448.729 293.602H445.721C445.003 293.602 444.485 293.422 444.147 293.044C443.808 292.665 443.529 292.287 443.27 291.908L434.186 276.011H423.229V292.167C423.229 292.586 423.09 292.924 422.831 293.203C422.552 293.482 422.193 293.602 421.735 293.602H418.548L418.568 293.562ZM423.249 270.652H433.588C436.716 270.652 439.067 269.995 440.601 268.68C442.135 267.365 442.912 265.413 442.912 262.823C442.912 260.233 442.155 258.341 440.621 257.006C439.107 255.672 436.756 254.994 433.568 254.994H423.229V270.652H423.249Z" fill="white"/>
<path d="M459.586 293.562C459.128 293.562 458.769 293.422 458.53 293.163C458.271 292.885 458.151 292.546 458.151 292.128V251.229C458.151 250.771 458.271 250.412 458.53 250.133C458.789 249.854 459.128 249.735 459.586 249.735H485.444C485.902 249.735 486.261 249.874 486.5 250.133C486.759 250.412 486.878 250.771 486.878 251.229V253.6C486.878 254.058 486.759 254.416 486.5 254.655C486.241 254.914 485.902 255.034 485.444 255.034H464.148V268.76H484.069C484.527 268.76 484.886 268.899 485.125 269.158C485.384 269.437 485.504 269.796 485.504 270.254V272.565C485.504 272.983 485.384 273.322 485.125 273.601C484.866 273.88 484.527 273.999 484.069 273.999H464.148V288.223H485.942C486.4 288.223 486.759 288.343 486.998 288.601C487.257 288.86 487.376 289.199 487.376 289.657V292.108C487.376 292.526 487.257 292.865 486.998 293.144C486.739 293.422 486.4 293.542 485.942 293.542H459.566L459.586 293.562Z" fill="white"/>
<path d="M4.68159 84.8849C3.80505 84.8849 3.08791 84.586 2.53011 83.9884C1.97232 83.3907 1.69339 82.6935 1.69339 81.8967V4.1635C1.69339 3.28696 1.97232 2.56978 2.53011 2.01199C3.08791 1.45419 3.80505 1.17529 4.68159 1.17529H37.2132C47.5723 1.17529 55.7002 3.54592 61.6169 8.2872C67.5136 13.0285 70.462 19.742 70.462 28.4476C70.462 34.1053 69.1073 38.8864 66.398 42.791C63.6887 46.6956 60.1028 49.644 55.6404 51.6361L72.0357 81.06C72.2748 81.5381 72.3943 81.9763 72.3943 82.3747C72.3943 83.0122 72.1353 83.59 71.6174 84.1079C71.0994 84.6259 70.5217 84.8849 69.8842 84.8849H53.987C52.4729 84.8849 51.3574 84.5063 50.6402 83.7493C49.923 82.9923 49.4051 82.2951 49.0863 81.6576L35.4601 55.3415H23.2682V81.8967C23.2682 82.6935 22.9694 83.3907 22.3718 83.9884C21.7741 84.586 21.037 84.8849 20.1605 84.8849H4.74139H4.68159ZM23.2284 38.3486H36.9741C40.7194 38.3486 43.5283 37.4322 45.4009 35.5994C47.2735 33.7666 48.2098 31.2964 48.2098 28.1887C48.2098 25.0809 47.3133 22.5708 45.5204 20.6584C43.7275 18.7459 40.8787 17.7897 36.9741 17.7897H23.2284V38.3685V38.3486Z" fill="white"/>
<path d="M119.508 86.0801C112.257 86.0801 105.942 84.9048 100.543 82.5541C95.1644 80.2033 91.0009 76.5776 88.0525 71.677C85.1041 66.7763 83.63 60.541 83.63 52.9509V4.1635C83.63 3.28696 83.9089 2.56978 84.4667 2.01199C85.0245 1.45419 85.7416 1.17529 86.6182 1.17529H102.037C102.914 1.17529 103.651 1.45419 104.249 2.01199C104.846 2.56978 105.145 3.28696 105.145 4.1635V52.8513C105.145 58.0309 106.38 61.9155 108.85 64.5053C111.321 67.0951 114.827 68.39 119.369 68.39C123.911 68.39 127.318 67.0951 129.828 64.5053C132.338 61.9155 133.593 58.0309 133.593 52.8513V4.1635C133.593 3.28696 133.892 2.56978 134.489 2.01199C135.087 1.45419 135.784 1.17529 136.581 1.17529H152.14C152.936 1.17529 153.634 1.45419 154.231 2.01199C154.829 2.56978 155.128 3.28696 155.128 4.1635V52.9509C155.128 60.521 153.654 66.7564 150.705 71.677C147.757 76.5976 143.613 80.2033 138.274 82.5541C132.935 84.9048 126.68 86.0801 119.488 86.0801H119.508Z" fill="white"/>
<path d="M174.053 84.8849C173.177 84.8849 172.459 84.586 171.902 83.9884C171.344 83.3907 171.065 82.6935 171.065 81.8967V4.1635C171.065 3.28696 171.344 2.56978 171.902 2.01199C172.459 1.45419 173.177 1.17529 174.053 1.17529H186.723C188.078 1.17529 189.054 1.47411 189.651 2.07175C190.249 2.66939 190.628 3.12759 190.787 3.44633L219.972 49.3651V4.1635C219.972 3.28696 220.251 2.56978 220.808 2.01199C221.366 1.45419 222.083 1.17529 222.96 1.17529H237.303C238.18 1.17529 238.897 1.45419 239.455 2.01199C240.013 2.56978 240.292 3.28696 240.292 4.1635V81.7771C240.292 82.6536 240.013 83.3907 239.455 83.9884C238.897 84.586 238.18 84.8849 237.303 84.8849H224.514C223.239 84.8849 222.303 84.5661 221.705 83.9286C221.107 83.2911 220.729 82.8529 220.569 82.6138L191.385 38.3685V81.8967C191.385 82.6935 191.106 83.3907 190.548 83.9884C189.99 84.586 189.273 84.8849 188.396 84.8849H174.053Z" fill="white"/>
<path d="M260.034 84.8849C259.157 84.8849 258.44 84.586 257.882 83.9884C257.324 83.3907 257.045 82.6935 257.045 81.8967V4.1635C257.045 3.28696 257.324 2.56978 257.882 2.01199C258.44 1.45419 259.157 1.17529 260.034 1.17529H272.704C274.058 1.17529 275.034 1.47411 275.632 2.07175C276.23 2.66939 276.608 3.12759 276.768 3.44633L305.952 49.3651V4.1635C305.952 3.28696 306.231 2.56978 306.789 2.01199C307.347 1.45419 308.064 1.17529 308.941 1.17529H323.284C324.16 1.17529 324.878 1.45419 325.435 2.01199C325.993 2.56978 326.272 3.28696 326.272 4.1635V81.7771C326.272 82.6536 325.993 83.3907 325.435 83.9884C324.878 84.586 324.16 84.8849 323.284 84.8849H310.494C309.219 84.8849 308.283 84.5661 307.686 83.9286C307.088 83.2911 306.709 82.8529 306.55 82.6138L277.365 38.3685V81.8967C277.365 82.6935 277.086 83.3907 276.529 83.9884C275.971 84.586 275.254 84.8849 274.377 84.8849H260.034Z" fill="white"/>
<path d="M346.034 84.8849C345.158 84.8849 344.44 84.586 343.883 83.9884C343.325 83.3907 343.046 82.6935 343.046 81.8967V4.1635C343.046 3.28696 343.325 2.56978 343.883 2.01199C344.44 1.45419 345.158 1.17529 346.034 1.17529H362.071C362.947 1.17529 363.684 1.45419 364.282 2.01199C364.88 2.56978 365.179 3.28696 365.179 4.1635V81.8967C365.179 82.6935 364.88 83.3907 364.282 83.9884C363.684 84.586 362.947 84.8849 362.071 84.8849H346.034Z" fill="white"/>
<path d="M384.781 84.8849C383.905 84.8849 383.187 84.586 382.63 83.9884C382.072 83.3907 381.793 82.6935 381.793 81.8967V4.1635C381.793 3.28696 382.072 2.56978 382.63 2.01199C383.187 1.45419 383.905 1.17529 384.781 1.17529H397.451C398.806 1.17529 399.782 1.47411 400.38 2.07175C400.977 2.66939 401.356 3.12759 401.515 3.44633L430.7 49.3651V4.1635C430.7 3.28696 430.979 2.56978 431.537 2.01199C432.094 1.45419 432.812 1.17529 433.688 1.17529H448.032C448.908 1.17529 449.625 1.45419 450.183 2.01199C450.741 2.56978 451.02 3.28696 451.02 4.1635V81.7771C451.02 82.6536 450.741 83.3907 450.183 83.9884C449.625 84.586 448.908 84.8849 448.032 84.8849H435.242C433.967 84.8849 433.031 84.5661 432.433 83.9286C431.835 83.2911 431.457 82.8529 431.298 82.6138L402.113 38.3685V81.8967C402.113 82.6935 401.834 83.3907 401.276 83.9884C400.718 84.586 400.001 84.8849 399.125 84.8849H384.781Z" fill="white"/>
<path d="M502.337 86.0802C494.767 86.0802 488.253 84.8251 482.774 82.3151C477.316 79.805 473.093 76.1394 470.104 71.3185C467.116 66.4975 465.463 60.6207 465.144 53.6682C465.064 50.2417 465.024 46.5961 465.024 42.7313C465.024 38.8666 465.064 35.1811 465.144 31.675C465.463 24.9017 467.136 19.1643 470.164 14.4629C473.192 9.76146 477.455 6.17562 482.954 3.70537C488.452 1.23513 494.906 0 502.337 0C508.313 0 513.613 0.737092 518.234 2.21127C522.856 3.68545 526.741 5.65767 529.888 8.12792C533.036 10.5982 535.446 13.3074 537.12 16.2558C538.793 19.2042 539.67 22.1127 539.749 24.9814C539.749 25.6985 539.49 26.2962 538.973 26.7743C538.455 27.2524 537.837 27.4915 537.12 27.4915H519.649C518.772 27.4915 518.115 27.352 517.677 27.0731C517.238 26.7942 516.86 26.3759 516.541 25.8181C515.983 24.6228 515.166 23.3677 514.091 22.0529C513.015 20.7381 511.541 19.6026 509.668 18.6464C507.796 17.6902 505.345 17.2121 502.317 17.2121C497.855 17.2121 494.309 18.4073 491.679 20.7979C489.05 23.1885 487.615 27.0134 487.376 32.2726C487.137 39.1256 487.137 46.0781 487.376 53.0904C487.615 58.6684 489.089 62.6925 491.799 65.1628C494.508 67.633 498.134 68.8681 502.676 68.8681C505.624 68.8681 508.274 68.3502 510.624 67.3143C512.975 66.2784 514.828 64.6647 516.182 62.4734C517.537 60.282 518.214 57.4731 518.214 54.0466V51.7756H506.979C506.102 51.7756 505.385 51.4768 504.827 50.8792C504.269 50.2815 503.991 49.5444 503.991 48.6679V39.8228C503.991 38.9462 504.269 38.2092 504.827 37.6115C505.385 37.0139 506.102 36.7151 506.979 36.7151H537.12C537.996 36.7151 538.714 37.0139 539.271 37.6115C539.829 38.2092 540.108 38.9462 540.108 39.8228V53.449C540.108 60.302 538.554 66.1588 535.446 71.0196C532.339 75.8805 527.936 79.6058 522.239 82.1955C516.541 84.7853 509.907 86.0802 502.317 86.0802H502.337Z" fill="white"/>
</g>
<defs>
<clipPath id="clip0_1_388">
<rect width="538.415" height="294.199" fill="white"/>
</clipPath>
</defs>
</svg>
