<svg width="351" height="410" viewBox="0 0 351 410" fill="none" xmlns="http://www.w3.org/2000/svg">
<path d="M0 0V409.284H350.696V0H0ZM292.286 175.408V180.766C291.41 200.05 285.891 218.119 276.787 233.877C272.843 240.71 268.241 247.085 263.062 252.942C254.695 262.404 244.834 270.492 233.817 276.847C224.773 282.086 214.951 286.131 204.592 288.8C196.903 290.772 188.914 291.987 180.727 292.346C178.954 292.426 177.161 292.465 175.368 292.465C173.575 292.465 171.782 292.426 170.009 292.346H159.849C168.973 308.144 174.511 326.272 175.348 345.616V350.815H116.879C116.879 329.181 105.125 310.275 87.654 300.175C79.048 295.195 69.0674 292.346 58.4294 292.346V233.877H174.611C174.85 233.877 175.109 233.877 175.368 233.877C175.627 233.877 175.886 233.877 176.125 233.877C186.484 233.737 196.205 230.928 204.592 226.068C221.864 216.067 233.558 197.5 233.817 176.165C233.817 175.926 233.817 175.667 233.817 175.408C233.817 175.149 233.817 174.91 233.817 174.651C233.558 153.315 221.864 134.748 204.592 124.748C195.986 119.787 186.006 116.938 175.368 116.938H146.143H58.4094V58.4692H180.368C188.695 58.8079 196.783 60.043 204.572 62.0351C214.932 64.7046 224.753 68.7486 233.797 73.9879C244.794 80.3428 254.675 88.4309 263.042 97.8936C268.221 103.75 272.823 110.125 276.767 116.938C285.872 132.696 291.41 150.765 292.266 170.049V175.408H292.286Z" fill="white"/>
</svg>
