<svg width="70" height="70" viewBox="0 0 70 70" fill="none" xmlns="http://www.w3.org/2000/svg">
<path d="M26.1317 38.5588L64.9998 38.4504L65.0213 30.417L26.1573 30.5214C26.9424 29.8639 27.7077 29.1704 28.441 28.437C34.9772 21.9009 38.5895 13.2264 38.6182 4.00593L30.5849 4.02751C30.5659 11.1017 27.7943 17.7556 22.7769 22.7729C17.7596 27.7903 11.1057 30.5618 4.03152 30.5808L4.00195 38.6143C11.0761 38.5953 17.7153 41.3311 22.7057 46.3216C27.6962 51.312 30.432 57.9512 30.413 65.0253L38.4464 65.0038C38.4712 55.7874 34.9014 47.1281 28.4003 40.627C27.6709 39.8976 26.9133 39.2122 26.1317 38.5588Z" fill="#fff"/>
</svg>
