<svg width="30" height="30" viewBox="0 0 30 30" fill="none" xmlns="http://www.w3.org/2000/svg">
<path d="M16.8917 9.61445L0 26.5057L3.4916 29.9965L20.3833 13.1087C20.3277 13.7339 20.2965 14.3661 20.2965 15.0017C20.2965 20.6669 22.5026 25.9917 26.5084 30L30 26.5092C26.9253 23.4352 25.2334 19.3505 25.2334 15.0017C25.2334 10.653 26.9253 6.56825 30 3.49427L26.5119 0C23.4372 3.07398 19.3515 4.76554 15.0017 4.76554C10.652 4.76554 6.5663 3.07398 3.4916 0L0 3.4908C4.00579 7.49566 9.33526 9.70129 15.0017 9.70129C15.6375 9.70129 16.2664 9.67002 16.8917 9.61445Z" fill="#F4F4F4"/>
</svg>
