<svg width="66" height="60" viewBox="0 0 66 60" fill="none" xmlns="http://www.w3.org/2000/svg">
<path d="M64.1751 10.3515L44.3751 0.352357C43.9166 0.120641 43.411 0 42.8983 0C42.3857 0 41.8801 0.120641 41.4216 0.352357L23.1 9.60823L4.7751 0.352357C4.27186 0.0983691 3.71269 -0.0214617 3.1507 0.00424587C2.5887 0.0299534 2.04254 0.200345 1.5641 0.499239C1.08565 0.798132 0.690802 1.2156 0.417051 1.712C0.1433 2.20839 -0.000261854 2.76723 3.58549e-07 3.33544V46.6651C3.58549e-07 47.9283 0.7062 49.0815 1.8249 49.6482L21.6249 59.6473C22.0834 59.879 22.589 59.9997 23.1016 59.9997C23.6143 59.9997 24.1199 59.879 24.5784 59.6473L42.9 50.3914L61.2249 59.644C61.7267 59.9004 62.2855 60.0219 62.8473 59.9968C63.4091 59.9717 63.9551 59.8008 64.4325 59.5006C65.406 58.8907 66 57.8208 66 56.6642V13.3346C66 12.0714 65.2938 10.9181 64.1751 10.3515ZM26.4 15.3944L39.6 8.72831V44.6053L26.4 51.2713V15.3944ZM6.6 8.72831L19.8 15.3944V51.2713L6.6 44.6053V8.72831ZM59.4 51.2713L46.2 44.6053V8.72831L59.4 15.3944V51.2713Z" fill="#1500B2"/>
</svg>
